<?xml version="1.0" encoding="UTF-8"?>
<svg id="Layer_1" xmlns="http://www.w3.org/2000/svg" version="1.1" viewBox="0 0 1024 1024">
  <!-- Generator: Adobe Illustrator 30.2.1, SVG Export Plug-In . SVG Version: 2.1.1 Build 1)  -->
  <defs>
    <style>
      .st0 {
        fill: #565456;
      }

      .st1 {
        fill: #171317;
      }

      .st2 {
        fill: #b9bbbe;
      }

      .st3 {
        fill: #909294;
      }

      .st4 {
        fill: #090908;
      }
    </style>
  </defs>
  <path class="st4" d="M648.3,1c6.4,1.6,20.2,9.9,26.3,13.4,40.1,23,72.3,57.4,84,102.9,14.7,57.4-14,100.2-40.8,147.7l-39.8,70.7c-26.3,46.1-51,91.8-78.3,137.7-5.9,9.6-22.2,37.4-28.4,44.6-10-17.3-.9-29,5.6-46.4,8.4-22.2,16.5-44.4,24.2-66.8,19.9-58.6,36.1-119.4,53.5-178.7,26.4-90,52.9-140.4-6.3-225.1"/>
  <path class="st4" d="M376.7,0l.5.3c-20.6,29.2-35.6,58-37.2,94.8-.4,10.9.4,21.8,2.5,32.5,2.2,11.1,7,25.9,10.2,37.2l22.1,76.5c9.1,32.2,18.4,64.3,27.8,96.3,5.9,20.2,12.7,44.7,19.5,64.3,7.1,19.9,14.4,39.8,22,59.6,4.2,10.9,9.4,23.5,12.5,34.7,1,3.9-2.5,15.5-3.7,20.2-8.6-14.4-18.7-28.8-27.6-43.4-22.7-35.7-43.6-74.8-64.4-111.8-26.4-46.8-53.3-94.2-79-141.3-19.1-34.9-25.4-74-12.9-112.1,17.8-54.3,59.7-82.9,107.6-107.8"/>
  <path class="st4" d="M253,96.6c.3,2.6-5.4,14.9-6.4,19-11.7,51.1,2.9,82.4,27.6,125.4,10.5,18.4,21.2,36.8,32.1,54.9,40,67.4,80,134.4,125,198.6,4.7,6.7,15.8,26.2,19.9,30.6-.3,5.7-.6,9.4-1.4,15-9-7.8-19.1-18.3-27.6-26.9-33.9-32.4-65.7-65.2-98.7-98.4-20.6-20.6-41-41.4-61.1-62.5-36.9-38.2-80.7-76.3-76.9-134.4,3-45.9,33.8-91.8,67.6-121.5"/>
  <path class="st4" d="M771.1,95.5c2.1.9,5.8,4.6,7.5,6.3,33.2,33.8,60.6,76.1,60.9,125.1.3,46-30,77.2-59.9,107.7-17.1,17.4-33.8,35-51.1,52.3l-126.4,127.8c-8.8,9-17.8,18.7-27.2,26.9l-2.4-15c18-22.4,36.7-52.4,52.1-77.1,50.9-82.1,103.2-165.3,149.1-250.1,14.6-27.1,8.9-75.6-2.5-103.8"/>
  <path class="st4" d="M856.9,240.6c0-1-.5-7.8.4-8,.5.2.8,1.1,1,1.6,24.6,53.9,42.1,118.5-11.2,162.6-20,16.5-43.7,29.7-65.5,43.9-28.4,18.4-57.1,36.5-85.9,54.2-39.1,24.7-78.6,48.6-118.7,71.6l-1-16.7c7-5.4,15.2-13.4,21.8-19.6,13.8-12.9,27.5-25.9,40.9-39.2l95.5-92.8,62.6-60.4c30.2-29.1,53.8-47.3,59.5-91.9.2-1.8.4-3.6.6-5.3"/>
  <path class="st1" d="M856.9,240.6c0-1-.5-7.8.4-8,.5.2.8,1.1,1,1.6-.4,2.1-.8,4.3-1.3,6.4"/>
  <path class="st4" d="M167.6,232.8c1.1,3.1,1,12.1,1.5,15.8,4.9,38.1,29.3,59.9,55.2,84.9,50.3,48.8,100,98.5,150.7,146.8l45.4,43.2c7.9,7.4,20.4,18.5,27.4,26.2l.7.8c-.5,5.4-.7,10.6-1,16-4.3-2.9-8.8-5.5-13.3-8.1-59.2-34.8-117.7-70.9-175.5-108.2-15.5-9.8-30.9-19.7-46.2-29.6-16.8-10.9-29.6-18.9-43.7-33.5-41.5-42.9-24.1-106.7-1.2-154.3"/>
  <path class="st4" d="M446.7,402.1c28.2.2,45.4-8.4,70.2-19,10.5-4.5,30.7-7.4,35.2,6.8l1.1,1.1c9.7-5.6,26.1-2.7,26.3,10.5,0,2.4.4,2.2-1.2,4-1.4-.6-8.6-3.8-9.9-3.9-10.3-.9-25.3,3.2-34.2,8.4-21.2,37.6,4.5,73.4,17.2,107.4,5.2,13.5,8.2,27.8,8.8,42.2,2,43.4-18.9,93.9-48,125.9-10.6-14.9-22-31-30.1-47.4-14.9-30.3-22.1-72.1-13.1-105.2,6-20.9,15.9-39.6,23.2-60.2,2.7-7.5,11-34.2,3.7-41-5.2-4.9-18.4-9.8-25.1-13.9-8.1-5.1-16.2-10.4-24.2-15.8"/>
  <path class="st2" d="M544.5,397.9c2.1-2.5,5-6,7.5-7.9l1.1,1.1c-2.9,3.1-5.2,4.4-8.6,6.8"/>
  <path class="st4" d="M887.4,365l1.9.4c5.2,59.2,0,124.4-65.2,146.7-19,6.5-38.1,12.8-57.3,18.9-63.1,20.3-126.4,39.8-190,58.3,0-4.5.3-9.2.5-13.7,11.8-5.8,29.4-16.6,41.2-23.4,25.6-14.6,51.1-29.4,76.3-44.5,40.1-23.9,80.5-46.7,121-69.8,34.9-19.9,60.5-30.9,71.6-72.8"/>
  <path class="st4" d="M135,372.2c0-.8-.2-6.7.6-6.9.7.5.7.9.9,1.8,3.5,13.5,16.2,36,28,43.5,43,27.4,89.7,52.7,133.7,78.4,37.4,22.3,75,44.2,112.8,65.8,11.9,6.9,25,15.4,36.6,21.9l.9,12.4c-83-24.8-166.2-48.9-248.1-77.2-38.2-13.2-59.8-47.9-64.9-86.8-2.4-18.5-1.6-34.6-.5-53"/>
  <path class="st0" d="M135,372.2c0-.8-.2-6.7.6-6.9.7.5.7.9.9,1.8-.5,1.7-1,3.4-1.5,5.1"/>
  <path class="st4" d="M880.6,492.4c.6,3.6-2.6,16.2-3.7,20-7.1,24-17.8,48.4-35.4,66.6-10.6,11.2-24.2,19.1-39.1,22.9-16.1,4.2-37.5,4.5-54.4,5-19.9.7-39.9,1.2-59.8,1.5l-115.1,2.2c-.5-3.1,1.7-10.3,2.6-13.6,18.3-3.6,40.1-10.2,58.2-15.4l85-24.2,79.5-21.4c39.9-10.9,54.9-11.1,82.2-43.6"/>
  <path class="st4" d="M145,493c1.6,1.5,5.6,6.3,7.1,8.2,16.8,20.9,37.7,24.3,62.4,31.2,22.4,6.2,44.8,12.3,67.3,18.3,55.6,15,112.9,31.6,168.4,47.4.7,3.9,1.8,8,2.6,11.8-38.6,1.1-78.4-.9-117.2-1.8-34.6-1.3-70,.1-104.4-4.7-55.7-7.9-76.9-62.4-86.3-110.3"/>
  <path class="st4" d="M841.5,598.9c-1.7,10.2-30.7,46.6-38.8,54.4-6.2,6-13.2,11.2-20.7,15.4-10.5,5.9-22.3,8.9-34.3,8.8-16.8-.3-42.4-9-59.4-13.4-28.2-7.2-56.6-15-84.6-23-12.1-3.5-25.2-6.6-37.5-9.6,1.6-4.3,3.1-9.5,4.6-13.9,39.9-.2,79.8,0,119.7.7l58.7,1.2c37.6.9,61.5,5.1,92.5-20.6"/>
  <path class="st4" d="M182.5,598.7c28.6,25.2,52.5,21.7,87.9,21,20.9-.3,41.8-.8,62.7-1.3,40.7-.9,80.7-.4,121.3-.8l4.7,13.8-33.9,8.5c-34,8.8-67.8,19.3-101.9,27.8-13.1,3.2-29.3,8.4-42.5,9.6-8.6.8-21.1-1.2-29.1-4.5-26.1-11-43.8-33.9-58.9-56.9-3-4.5-8.2-12.5-10.2-17.2"/>
  <path class="st4" d="M521.3,700.4l1.2.9c8.3,24.9,16.4,49.8,24.3,74.8,14.6,45.3,33.5,91,17.1,138.6-9.8,28.3-25.5,44.8-36.2,72.2-4.6,12.8-7.1,23.7-10,36.9-1.1-9.6,0-40.8.1-51.2.4-26.1.5-52.3.3-78.5l-2.3-130.7c-.2-9.9-1.8-52.3-.5-60,2-2.3,2.7-1.9,6.1-3.2"/>
  <path class="st4" d="M501.9,696.9c2,.5,4,.9,6,1.4,1.8,2.2,1.6,2.9,1.6,5.9.3,68.4-3,137.1-3.2,205.5,0,27.1.3,54.2.9,81.4.4,3.4,1.3,31.6.2,33h-.5c-.6-1.2-1-6.2-1.2-7.9-7.2-37.3-15.9-48.8-34.5-80.8-29-50-14.1-101.5,3.2-152.4,9.6-28.2,19.3-57,27.5-86"/>
  <path class="st0" d="M507.2,991c.4,3.4,1.3,31.6.2,33h-.5c-.6-1.2-1-6.2-1.2-7.9.3-.1,1.3-.4,1.3-.4.3-5.5-.2-19.8.2-24.6"/>
  <path class="st4" d="M563.5,638.9c9.4,1.5,24.1,7.3,34,10.1,22.6,6,45.4,14.4,67.8,20.7,31.6,8.9,77.5,30.2,109.5,16.8-10.1,10.6-17.3,17.8-28.6,27.1-11.8,9.2-28.5,21.3-43.5,24.2-14,2.8-30.6-10.4-41.8-17.6-6.8-4.4-14-9.4-20.9-14-27.8-18.3-55.5-36.8-83-55.5l6.5-11.8Z"/>
  <path class="st4" d="M461.4,639.4l.9.3c2.7,3.4,3.7,6.3,5.4,10.2-4,3.4-8.5,6.8-12.8,9.7-36.7,24.7-73.2,49.7-110.8,72.9-2.9,1.8-10.3,5.3-13.4,5.5-19,1.3-40.6-15.4-53.9-25.9-7.9-6.1-21.5-18.6-27.9-26.4,34.3,13.6,66.3-2.9,99.3-12.5,37.7-11,75.2-23.7,113.2-33.7"/>
  <path class="st4" d="M553.4,657.4c12.9,12.2,40.3,30,55.2,41.7,19.6,14.3,38.3,29.9,58.3,43.7,12.3,8.5,21.3,8.7,35.4,5.8-8.4,5.6-16.3,11-25.1,15.9-16.8,10.4-46.5,24.6-60.9,4.5-23.1-32.2-50.1-63.7-72.3-96.4,3-5.4,6-10,9.4-15.2"/>
  <path class="st4" d="M472.3,658.2c2.2,1.6,7.4,11.4,8.9,14.1-14.6,21.2-31.9,42.2-46.8,62.8-30.2,41.9-35.5,58.7-86.6,29.5-8.3-5.2-16.2-10.3-24-16.2,8.4,1.9,18.2,3.4,26.2-1,18.7-10.3,35.5-24.8,52.7-37.6,23.1-17.2,46.8-34,69.6-51.6"/>
  <path class="st4" d="M537.7,680.2c1.6,1.3,12.9,16.8,14.7,19.4,11.5,15.9,23.7,31.4,35.4,47.2,4.3,5.9,9.2,15.9,13.6,22.2,8.1,11.8,13.1,12.9,26,15.4-5.3,2.2-11.2,4.4-16.6,6.4-17,5.4-24.1,7.6-42,8.8-5.9-14.8-11.8-34.2-17.3-49.7-6.7-19-15.5-40.5-21.3-59.4,2.2-3.2,5.2-7.1,7.6-10.3"/>
  <path class="st4" d="M487.1,681.8c2.8,2.3,5.7,7.3,7.8,10.5-7,16.7-13.2,34.9-19.8,51.9-7.1,18.5-14.5,37.2-19.7,56.2-15.7-2-22.7-3.4-37.5-8.5l-19.6-7c29.5-6.7,23-17.6,37.4-36.4,16.1-20.9,34-47.2,51.3-66.7"/>
  <path class="st0" d="M888.4,360.7c1.5-.4,1,1.9,1.2,3.4l-.3,1.3-1.9-.4c.2-1.8.5-2.6,1-4.3"/>
  <path class="st3" d="M888.4,360.7c1.5-.4,1,1.9,1.2,3.4-.9-1.7-.9-1.6-1.2-3.4"/>
</svg>