<?xml version="1.0" encoding="UTF-8"?>
<svg id="Layer_1" data-name="Layer 1" xmlns="http://www.w3.org/2000/svg" viewBox="0 0 1024 1024">
  <defs>
    <style>
      .cls-1 {
        fill: #565456;
      }

      .cls-2 {
        fill: #171317;
      }

      .cls-3 {
        fill: #b9bbbe;
      }

      .cls-4 {
        fill: #909294;
      }

      .cls-5 {
        fill: #090908;
      }
    </style>
  </defs>
  <path class="cls-5" d="M648.32,1.04c6.44,1.63,20.22,9.93,26.35,13.41,40.11,23.04,72.28,57.42,83.96,102.91,14.73,57.37-14.02,100.18-40.81,147.67l-39.78,70.75c-26.32,46.09-50.99,91.84-78.3,137.68-5.91,9.65-22.2,37.36-28.36,44.57-9.95-17.34-.86-29.04,5.55-46.36,8.38-22.16,16.46-44.43,24.24-66.81,19.87-58.59,36.09-119.44,53.49-178.73,26.41-89.97,52.89-140.35-6.35-225.1"/>
  <path class="cls-5" d="M376.74,0l.53.3c-20.62,29.22-35.55,57.98-37.15,94.81-.42,10.91.43,21.83,2.52,32.54,2.24,11.09,6.99,25.95,10.18,37.19l22.13,76.48c9.09,32.15,18.37,64.25,27.85,96.3,5.87,20.24,12.68,44.71,19.5,64.32,7.09,19.94,14.41,39.8,21.97,59.56,4.17,10.86,9.45,23.48,12.46,34.69,1.03,3.86-2.46,15.49-3.68,20.17-8.65-14.37-18.66-28.8-27.58-43.36-22.67-35.71-43.56-74.83-64.39-111.78-26.41-46.83-53.28-94.23-79.03-141.32-19.07-34.87-25.4-74.02-12.88-112.14,17.84-54.34,59.71-82.9,107.58-107.77"/>
  <path class="cls-5" d="M252.99,96.6c.34,2.61-5.44,14.87-6.37,18.99-11.66,51.13,2.91,82.36,27.62,125.45,10.49,18.44,21.2,36.76,32.12,54.95,40.05,67.36,80,134.39,124.99,198.61,4.72,6.73,15.76,26.19,19.88,30.65-.3,5.67-.55,9.41-1.43,15-8.99-7.79-19.08-18.32-27.64-26.85-33.88-32.42-65.66-65.22-98.71-98.39-20.59-20.62-40.97-41.45-61.14-62.49-36.9-38.18-80.75-76.26-76.93-134.39,3.01-45.86,33.84-91.82,67.62-121.52"/>
  <path class="cls-5" d="M771.1,95.54c2.07.92,5.76,4.61,7.45,6.34,33.24,33.81,60.59,76.1,60.87,125.07.26,46.01-30,77.24-59.95,107.66-17.12,17.38-33.83,34.95-51.09,52.26l-126.44,127.8c-8.75,9.02-17.82,18.68-27.22,26.93l-2.36-15.02c18.03-22.37,36.72-52.39,52.08-77.15,50.91-82.07,103.19-165.27,149.14-250.14,14.65-27.06,8.91-75.63-2.5-103.76"/>
  <path class="cls-5" d="M856.93,240.58c-.01-.96-.5-7.81.39-7.99.47.24.75,1.14.95,1.61,24.56,53.85,42.08,118.55-11.23,162.57-19.99,16.5-43.75,29.69-65.48,43.91-28.41,18.43-57.06,36.49-85.92,54.2-39.07,24.69-78.64,48.57-118.7,71.63l-1.02-16.69c7.03-5.43,15.16-13.4,21.78-19.58,13.84-12.86,27.49-25.93,40.93-39.2l95.52-92.82,62.63-60.44c30.17-29.09,53.76-47.25,59.54-91.85.23-1.78.43-3.56.6-5.34"/>
  <path class="cls-2" d="M856.93,240.58c-.01-.96-.5-7.81.39-7.99.47.24.75,1.14.95,1.61-.39,2.14-.83,4.27-1.34,6.39"/>
  <path class="cls-5" d="M167.58,232.8c1.14,3.15.98,12.07,1.46,15.82,4.9,38.07,29.35,59.88,55.21,84.93,50.35,48.77,99.98,98.48,150.7,146.8l45.4,43.16c7.88,7.42,20.42,18.48,27.39,26.24l.74.84c-.52,5.39-.74,10.59-1,15.99-4.31-2.88-8.84-5.49-13.3-8.15-59.25-34.82-117.75-70.89-175.46-108.2-15.46-9.79-30.87-19.67-46.23-29.64-16.77-10.9-29.64-18.93-43.69-33.47-41.52-42.94-24.15-106.74-1.24-154.31"/>
  <path class="cls-5" d="M446.67,402.12c28.21.15,45.43-8.38,70.22-18.97,10.48-4.48,30.66-7.35,35.15,6.81l1.11,1.1c9.7-5.62,26.14-2.67,26.29,10.55.03,2.44.45,2.19-1.2,4.03-1.39-.62-8.64-3.77-9.91-3.88-10.31-.93-25.34,3.2-34.22,8.37-21.22,37.55,4.54,73.43,17.23,107.39,5.18,13.52,8.16,27.78,8.83,42.24,1.98,43.45-18.93,93.94-48.04,125.91-10.58-14.86-22.01-31.03-30.06-47.42-14.91-30.34-22.14-72.14-13.1-105.25,6-20.91,15.92-39.63,23.23-60.17,2.65-7.45,10.99-34.19,3.71-41.04-5.2-4.89-18.44-9.77-25.06-13.92-8.1-5.07-16.2-10.45-24.18-15.76"/>
  <path class="cls-3" d="M544.53,397.89c2.05-2.45,5.01-5.96,7.52-7.92l1.11,1.1c-2.88,3.13-5.17,4.38-8.63,6.82"/>
  <path class="cls-5" d="M887.39,365l1.86.36c5.19,59.16.04,124.45-65.23,146.69-19.03,6.47-38.12,12.79-57.26,18.93-63.07,20.33-126.43,39.77-190.05,58.31.04-4.54.33-9.18.54-13.73,11.81-5.76,29.39-16.59,41.21-23.41,25.61-14.56,51.06-29.41,76.33-44.55,40.08-23.91,80.49-46.66,120.97-69.82,34.86-19.94,60.53-30.88,71.62-72.79"/>
  <path class="cls-5" d="M134.98,372.16c0-.79-.25-6.73.6-6.9.66.52.67.91.92,1.77,3.45,13.51,16.23,35.99,28.01,43.52,42.95,27.45,89.74,52.67,133.67,78.42,37.4,22.29,75.01,44.23,112.82,65.82,11.86,6.92,25.03,15.37,36.61,21.91l.89,12.43c-83.01-24.84-166.15-48.85-248.08-77.22-38.18-13.22-59.77-47.91-64.91-86.79-2.44-18.45-1.62-34.57-.54-52.97"/>
  <path class="cls-1" d="M134.98,372.16c0-.79-.25-6.73.6-6.9.66.52.67.91.92,1.77-.46,1.72-.96,3.43-1.52,5.13"/>
  <path class="cls-5" d="M880.56,492.39c.58,3.63-2.61,16.23-3.71,19.96-7.1,23.99-17.75,48.37-35.36,66.59-10.61,11.18-24.16,19.13-39.09,22.94-16.06,4.2-37.53,4.46-54.36,5.02-19.93.74-39.86,1.23-59.81,1.49l-115.12,2.2c-.54-3.08,1.75-10.3,2.62-13.61,18.29-3.65,40.08-10.24,58.16-15.43l84.96-24.18,79.46-21.38c39.88-10.89,54.9-11.11,82.25-43.6"/>
  <path class="cls-5" d="M145.03,493c1.65,1.51,5.57,6.31,7.09,8.22,16.75,20.91,37.68,24.3,62.4,31.16,22.4,6.2,44.82,12.29,67.28,18.26,55.63,14.97,112.86,31.61,168.41,47.38.74,3.88,1.76,7.97,2.64,11.84-38.56,1.15-78.44-.89-117.15-1.8-34.62-1.32-70.04.12-104.39-4.73-55.67-7.86-76.88-62.36-86.28-110.34"/>
  <path class="cls-5" d="M841.51,598.9c-1.65,10.17-30.74,46.6-38.84,54.36-6.2,6.02-13.16,11.21-20.7,15.44-10.49,5.87-22.32,8.92-34.33,8.84-16.84-.26-42.37-9.02-59.44-13.37-28.17-7.18-56.62-14.99-84.57-23.02-12.13-3.45-25.23-6.55-37.51-9.59,1.59-4.29,3.13-9.5,4.56-13.91,39.89-.17,79.77.05,119.66.68l58.69,1.21c37.62.86,61.52,5.13,92.49-20.64"/>
  <path class="cls-5" d="M182.49,598.74c28.61,25.2,52.49,21.68,87.92,21.03,20.89-.33,41.77-.76,62.66-1.3,40.74-.91,80.73-.44,121.35-.76l4.69,13.76-33.94,8.53c-34.04,8.77-67.77,19.34-101.9,27.8-13.1,3.25-29.28,8.41-42.53,9.64-8.6.8-21.1-1.18-29.13-4.55-26.15-10.98-43.76-33.95-58.94-56.93-2.98-4.51-8.24-12.54-10.18-17.22"/>
  <path class="cls-5" d="M521.3,700.45l1.19.93c8.29,24.87,16.38,49.8,24.26,74.8,14.59,45.29,33.49,91,17.05,138.65-9.77,28.32-25.51,44.81-36.2,72.24-4.56,12.83-7.14,23.68-9.96,36.93-1.1-9.62-.09-40.82.1-51.22.45-26.15.54-52.3.26-78.45l-2.33-130.69c-.21-9.91-1.75-52.28-.47-60.03,2.03-2.33,2.68-1.95,6.09-3.16"/>
  <path class="cls-5" d="M501.89,696.86c2,.45,4,.93,5.99,1.43,1.78,2.22,1.59,2.88,1.61,5.91.28,68.39-2.96,137.13-3.23,205.48,0,27.12.32,54.24.92,81.36.43,3.37,1.33,31.63.18,32.96l-.47-.1c-.59-1.09-.96-6.11-1.18-7.82-7.19-37.26-15.88-48.78-34.49-80.83-29.02-49.98-14.05-101.55,3.16-152.36,9.56-28.19,19.27-56.95,27.5-86.03"/>
  <path class="cls-1" d="M507.18,991.04c.43,3.37,1.33,31.63.18,32.96l-.47-.1c-.59-1.09-.96-6.11-1.18-7.82.34-.1,1.26-.38,1.27-.45.3-5.5-.18-19.82.19-24.6"/>
  <path class="cls-5" d="M563.51,638.87c9.43,1.46,24.11,7.26,33.95,10.1,22.57,6.03,45.43,14.42,67.8,20.72,31.59,8.9,77.54,30.21,109.52,16.83-10.1,10.62-17.25,17.76-28.56,27.08-11.75,9.24-28.54,21.25-43.53,24.24-14.03,2.79-30.6-10.45-41.75-17.64-6.8-4.39-14.03-9.41-20.9-13.99-27.79-18.31-55.45-36.81-82.99-55.51l6.46-11.82Z"/>
  <path class="cls-5" d="M461.37,639.36l.85.27c2.68,3.4,3.68,6.26,5.43,10.2-3.96,3.43-8.48,6.79-12.83,9.71-36.66,24.66-73.16,49.7-110.76,72.92-2.93,1.81-10.28,5.3-13.36,5.52-19.02,1.35-40.63-15.37-53.92-25.91-7.88-6.1-21.47-18.59-27.9-26.45,34.26,13.65,66.28-2.94,99.3-12.53,37.73-10.96,75.2-23.71,113.19-33.74"/>
  <path class="cls-5" d="M553.43,657.39c12.86,12.21,40.28,30.04,55.2,41.69,19.64,14.29,38.3,29.87,58.28,43.7,12.32,8.53,21.27,8.72,35.37,5.77-8.4,5.59-16.31,10.96-25.11,15.92-16.79,10.42-46.51,24.57-60.9,4.52-23.13-32.21-50.09-63.7-72.28-96.4,3.03-5.39,6.05-10.01,9.43-15.2"/>
  <path class="cls-5" d="M472.25,658.23c2.15,1.6,7.42,11.44,8.93,14.11-14.62,21.17-31.95,42.21-46.82,62.85-30.18,41.88-35.49,58.74-86.57,29.47-8.27-5.2-16.25-10.32-24.04-16.21,8.44,1.89,18.22,3.4,26.23-1.02,18.73-10.33,35.54-24.83,52.71-37.64,23.1-17.23,46.76-33.95,69.55-51.56"/>
  <path class="cls-5" d="M537.71,680.18c1.57,1.33,12.86,16.84,14.7,19.39,11.54,15.93,23.67,31.42,35.37,47.21,4.34,5.85,9.21,15.88,13.56,22.22,8.1,11.82,13.13,12.9,26,15.4-5.3,2.24-11.18,4.37-16.58,6.45-16.96,5.4-24.1,7.56-42.04,8.79-5.93-14.8-11.75-34.15-17.26-49.73-6.72-19.02-15.46-40.5-21.34-59.44,2.16-3.18,5.25-7.14,7.58-10.29"/>
  <path class="cls-5" d="M487.11,681.81c2.85,2.32,5.71,7.25,7.84,10.48-6.97,16.74-13.22,34.85-19.76,51.89-7.09,18.47-14.54,37.16-19.72,56.22-15.65-2.05-22.71-3.36-37.46-8.52l-19.59-7c29.52-6.69,23.02-17.64,37.44-36.39,16.05-20.87,33.96-47.22,51.25-66.68"/>
  <path class="cls-1" d="M888.39,360.7c1.54-.38,1.02,1.9,1.16,3.39l-.29,1.27-1.86-.36c.22-1.77.5-2.58,1-4.3"/>
  <path class="cls-4" d="M888.39,360.7c1.54-.38,1.02,1.9,1.16,3.39-.87-1.68-.95-1.64-1.16-3.39"/>
</svg>