<?xml version="1.0" encoding="utf-8" ?><svg xmlns="http://www.w3.org/2000/svg" xmlns:xlink="http://www.w3.org/1999/xlink" width="1024" height="1024" viewBox="0 0 1024 1024"><path fill="#FCFCFB" d="M0 0L1024 0L1024 1024L0 1024L0 0Z"/><path fill="#090908" d="M598.054 190.721C602.115 191.749 610.801 196.982 614.661 199.176C639.946 213.698 660.218 235.372 667.582 264.046C676.869 300.208 658.747 327.193 641.858 357.128L616.784 401.722C600.193 430.775 584.646 459.612 567.43 488.505C563.703 494.585 553.436 512.053 549.556 516.596C543.284 505.664 549.012 498.293 553.056 487.375C558.336 473.407 563.429 459.369 568.335 445.265C580.862 408.335 591.085 369.98 602.054 332.606C618.699 275.893 635.394 244.138 598.054 190.721Z"/><path fill="#090908" d="M426.871 190.065L427.207 190.257C414.212 208.676 404.796 226.805 403.789 250.021C403.525 256.896 404.058 263.78 405.378 270.532C406.792 277.523 409.782 286.887 411.792 293.971L425.739 342.177C431.467 362.445 437.319 382.678 443.293 402.875C446.996 415.631 451.285 431.056 455.586 443.416C460.052 455.985 464.669 468.501 469.436 480.959C472.065 487.807 475.392 495.756 477.289 502.827C477.941 505.258 475.739 512.593 474.97 515.542C469.518 506.487 463.206 497.388 457.585 488.214C443.298 465.703 430.131 441.044 416.998 417.758C400.351 388.242 383.414 358.362 367.184 328.678C355.166 306.696 351.176 282.019 359.063 257.993C370.307 223.742 396.699 205.737 426.871 190.065Z"/><path fill="#090908" d="M348.868 250.957C349.083 252.603 345.442 260.333 344.851 262.924C337.501 295.154 346.685 314.836 362.26 341.997C368.875 353.62 375.624 365.165 382.505 376.632C407.749 419.092 432.928 461.339 461.287 501.822C464.261 506.067 471.223 518.328 473.816 521.14C473.63 524.715 473.468 527.069 472.914 530.597C467.249 525.689 460.89 519.047 455.489 513.67C434.134 493.232 414.101 472.56 393.267 451.654C380.286 438.658 367.44 425.528 354.732 412.265C331.474 388.201 303.835 364.195 306.244 327.555C308.144 298.65 327.577 269.679 348.868 250.957Z"/><path fill="#090908" d="M675.445 250.287C676.748 250.87 679.073 253.194 680.142 254.286C701.097 275.597 718.334 302.254 718.511 333.124C718.676 362.125 699.602 381.812 680.724 400.982C669.934 411.939 659.4 423.015 648.521 433.924L568.825 514.478C563.307 520.161 557.594 526.252 551.669 531.454L550.183 521.987C561.546 507.887 573.331 488.967 583.013 473.359C615.101 421.63 648.059 369.187 677.02 315.69C686.252 298.635 682.638 268.02 675.445 250.287Z"/><path fill="#090908" d="M729.544 341.706C729.535 341.104 729.23 336.785 729.787 336.667C730.084 336.819 730.26 337.386 730.388 337.68C745.867 371.625 756.909 412.404 723.308 440.15C710.71 450.552 695.734 458.867 682.037 467.825C664.128 479.439 646.074 490.828 627.879 501.99C603.253 517.554 578.308 532.608 553.059 547.141L552.418 536.622C556.849 533.202 561.971 528.173 566.145 524.282C574.871 516.177 583.472 507.94 591.946 499.572L652.154 441.066L691.634 402.968C710.654 384.634 725.522 373.183 729.165 345.07C729.308 343.95 729.435 342.829 729.544 341.706Z"/><path fill="#171317" d="M729.544 341.706C729.535 341.104 729.23 336.785 729.787 336.667C730.084 336.819 730.26 337.386 730.388 337.68C730.145 339.03 729.863 340.372 729.544 341.706Z"/><path fill="#090908" d="M295.029 336.802C295.75 338.787 295.644 344.408 295.952 346.774C299.041 370.771 314.45 384.515 330.754 400.307C362.49 431.047 393.775 462.383 425.747 492.838L454.363 520.041C459.329 524.721 467.235 531.69 471.627 536.581L472.095 537.108C471.767 540.507 471.626 543.781 471.465 547.19C468.747 545.374 465.893 543.727 463.082 542.053C425.737 520.107 388.864 497.368 352.487 473.852C342.74 467.679 333.027 461.451 323.35 455.167C312.781 448.297 304.67 443.233 295.81 434.069C269.642 407.003 280.59 366.79 295.029 336.802Z"/><path fill="#090908" d="M470.949 443.531C488.728 443.628 499.586 438.248 515.212 431.574C521.818 428.753 534.54 426.938 537.371 435.869L538.069 436.563C544.182 433.022 554.546 434.878 554.642 443.211C554.66 444.749 554.925 444.593 553.885 445.751C553.01 445.359 548.438 443.377 547.636 443.305C541.14 442.72 531.663 445.324 526.064 448.579C512.691 472.249 528.923 494.867 536.922 516.272C540.188 524.793 542.068 533.782 542.489 542.898C543.737 570.283 530.554 602.111 512.206 622.263C505.537 612.897 498.335 602.704 493.257 592.374C483.856 573.248 479.3 546.905 484.999 526.035C488.782 512.854 495.034 501.054 499.643 488.108C501.315 483.412 506.572 466.555 501.982 462.237C498.705 459.153 490.36 456.08 486.189 453.466C481.086 450.269 475.98 446.882 470.949 443.531Z"/><path fill="#B9BBBE" d="M532.631 440.864C533.926 439.319 535.786 437.107 537.371 435.869L538.069 436.563C536.254 438.536 534.813 439.322 532.631 440.864Z"/><path fill="#090908" d="M748.748 420.136L749.922 420.361C753.194 457.653 749.95 498.803 708.808 512.826C696.811 516.915 684.79 520.873 672.713 524.761C632.957 537.574 593.022 549.827 552.921 561.518C552.945 558.657 553.126 555.729 553.262 552.866C560.708 549.235 571.788 542.408 579.24 538.109C595.383 528.93 611.422 519.57 627.354 510.03C652.619 494.961 678.086 480.616 703.606 466.02C725.578 453.454 741.757 446.553 748.748 420.136Z"/><path fill="#090908" d="M274.484 424.645C274.484 424.149 274.327 420.4 274.861 420.298C275.279 420.626 275.283 420.87 275.439 421.412C277.614 429.93 285.669 444.1 293.095 448.845C320.169 466.145 349.659 482.043 377.353 498.277C400.929 512.326 424.636 526.155 448.469 539.763C455.944 544.124 464.249 549.45 471.547 553.574L472.111 561.412C419.786 545.755 367.381 530.618 315.741 512.739C291.677 504.407 278.067 482.539 274.824 458.033C273.285 446.401 273.806 436.241 274.484 424.645Z"/><path fill="#565456" d="M274.484 424.645C274.484 424.149 274.327 420.4 274.861 420.298C275.279 420.626 275.283 420.87 275.439 421.412C275.144 422.541 274.839 423.535 274.484 424.645Z"/><path fill="#090908" d="M744.444 500.433C744.81 502.721 742.798 510.666 742.103 513.013C737.627 528.132 730.913 543.5 719.817 554.988C713.131 562.036 704.589 567.049 695.175 569.449C685.053 572.095 671.52 572.261 660.912 572.615C648.351 573.079 635.784 573.392 623.215 573.555L550.653 574.941C550.313 572.998 551.756 568.447 552.304 566.36C563.832 564.062 577.567 559.907 588.963 556.634L642.515 541.393L692.6 527.918C717.738 521.054 727.206 520.917 744.444 500.433Z"/><path fill="#090908" d="M280.816 500.813C281.856 501.764 284.326 504.791 285.288 505.992C295.847 519.173 309.038 521.308 324.619 525.635C338.736 529.543 352.872 533.38 367.027 537.147C402.095 546.586 438.166 557.071 473.182 567.013C473.649 569.457 474.289 572.036 474.846 574.475C450.542 575.198 425.406 573.915 401.001 573.343C379.177 572.513 356.85 573.421 335.202 570.364C300.11 565.408 286.744 531.058 280.816 500.813Z"/><path fill="#090908" d="M719.826 567.57C718.783 573.983 700.451 596.941 695.343 601.837C691.432 605.63 687.048 608.901 682.298 611.568C675.689 615.27 668.231 617.189 660.656 617.138C650.039 616.973 633.948 611.453 623.19 608.712C605.432 604.188 587.499 599.263 569.883 594.204C562.24 592.027 553.978 590.075 546.238 588.162C547.239 585.456 548.214 582.175 549.111 579.395C574.253 579.286 599.395 579.428 624.534 579.821L661.526 580.583C685.238 581.122 700.301 583.819 719.826 567.57Z"/><path fill="#090908" d="M304.428 567.464C322.461 583.348 337.514 581.132 359.844 580.719C373.01 580.511 386.176 580.237 399.339 579.897C425.016 579.325 450.228 579.62 475.829 579.42L478.786 588.092L457.395 593.47C435.938 598.999 414.677 605.661 393.167 610.996C384.908 613.044 374.708 616.296 366.361 617.071C360.942 617.574 353.064 616.329 347.998 614.203C331.515 607.283 320.415 592.804 310.846 578.319C308.969 575.477 305.653 570.412 304.428 567.464Z"/><path fill="#090908" d="M517.992 629.51L518.745 630.098C523.973 645.772 529.07 661.489 534.036 677.249C543.23 705.798 555.147 734.608 544.785 764.643C538.627 782.491 528.708 792.889 521.966 810.177C519.094 818.264 517.467 825.103 515.69 833.455C514.994 827.389 515.635 807.722 515.756 801.167C516.039 784.685 516.094 768.2 515.922 751.717L514.451 669.342C514.318 663.093 513.346 636.386 514.156 631.503C515.434 630.032 515.847 630.276 517.992 629.51Z"/><path fill="#090908" d="M505.754 629.312C507.017 629.596 508.276 629.896 509.531 630.213C510.65 631.611 510.536 632.03 510.544 633.936C510.718 677.043 508.678 720.372 508.51 763.458C508.516 780.555 508.709 797.65 509.089 814.742C509.357 816.866 509.925 834.677 509.205 835.519L508.911 835.453C508.536 834.767 508.305 831.601 508.169 830.526C503.636 807.039 498.161 799.779 486.429 779.574C468.136 748.07 477.57 715.565 488.422 683.54C494.445 665.768 500.567 647.642 505.754 629.312Z"/><path fill="#565456" d="M509.089 814.742C509.357 816.866 509.925 834.677 509.205 835.519L508.911 835.453C508.536 834.767 508.305 831.601 508.169 830.526C508.381 830.46 508.966 830.288 508.968 830.245C509.154 826.779 508.857 817.755 509.089 814.742Z"/><path fill="#090908" d="M544.599 592.759C550.54 593.678 559.798 597.335 566.001 599.125C580.227 602.926 594.639 608.213 608.735 612.184C628.649 617.794 657.613 631.225 677.766 622.795C671.402 629.492 666.89 633.99 659.767 639.862C652.36 645.685 641.778 653.259 632.328 655.138C623.483 656.898 613.039 648.553 606.01 644.018C601.723 641.252 597.164 638.088 592.836 635.199C575.319 623.658 557.883 611.994 540.528 600.21L544.599 592.759Z"/><path fill="#090908" d="M480.215 593.073L480.752 593.244C482.439 595.387 483.072 597.191 484.172 599.673C481.678 601.833 478.824 603.953 476.084 605.796C452.974 621.342 429.969 637.122 406.272 651.762C404.427 652.901 399.795 655.105 397.852 655.243C385.863 656.091 372.244 645.553 363.863 638.911C358.893 635.064 350.328 627.193 346.274 622.24C367.87 630.843 388.054 620.385 408.866 614.339C432.649 607.43 456.268 599.397 480.215 593.073Z"/><path fill="#090908" d="M538.243 604.433C546.352 612.127 563.632 623.368 573.04 630.711C585.417 639.719 597.184 649.54 609.773 658.254C617.541 663.631 623.177 663.752 632.069 661.894C626.773 665.417 621.791 668.802 616.243 671.928C605.662 678.497 586.928 687.414 577.853 674.776C563.273 654.474 546.278 634.623 532.296 614.011C534.204 610.614 536.108 607.699 538.243 604.433Z"/><path fill="#090908" d="M487.074 604.966C488.432 605.972 491.75 612.18 492.705 613.863C483.489 627.209 472.567 640.471 463.194 653.478C444.172 679.879 440.823 690.501 408.629 672.054C403.418 668.777 398.387 665.548 393.474 661.834C398.793 663.026 404.957 663.979 410.005 661.194C421.814 654.681 432.408 645.543 443.232 637.468C457.794 626.605 472.706 616.068 487.074 604.966Z"/><path fill="#090908" d="M528.336 618.798C529.328 619.636 536.44 629.413 537.604 631.02C544.88 641.061 552.521 650.827 559.9 660.777C562.637 664.466 565.707 670.785 568.448 674.783C573.554 682.231 576.725 682.915 584.835 684.493C581.496 685.902 577.789 687.246 574.383 688.558C563.691 691.962 559.19 693.326 547.885 694.097C544.149 684.766 540.477 672.57 537.008 662.754C532.771 650.766 527.26 637.225 523.559 625.285C524.918 623.283 526.868 620.787 528.336 618.798Z"/><path fill="#090908" d="M496.438 619.829C498.232 621.294 500.036 624.402 501.382 626.435C496.987 636.985 493.048 648.402 488.926 659.142C484.459 670.782 479.761 682.567 476.494 694.58C466.628 693.288 462.182 692.462 452.879 689.208L440.534 684.796C459.141 680.582 455.042 673.676 464.132 661.86C474.251 648.707 485.538 632.095 496.438 619.829Z"/><path fill="#565456" d="M749.379 417.423C750.351 417.184 750.02 418.621 750.107 419.561L749.922 420.361L748.748 420.136C748.888 419.019 749.06 418.508 749.379 417.423Z"/><path fill="#909294" d="M749.379 417.423C750.351 417.184 750.02 418.621 750.107 419.561C749.561 418.501 749.509 418.526 749.379 417.423Z"/></svg>