<?xml version="1.0" encoding="utf-8" ?><svg xmlns="http://www.w3.org/2000/svg" xmlns:xlink="http://www.w3.org/1999/xlink" width="975" height="975" viewBox="0 0 975 975"><path fill="#FDFDFC" transform="scale(0.951833 0.951833)" d="M0 0L1024 0L1024 1024L0 1024L0 0Z"/><path fill="#0C0C0C" transform="scale(0.951833 0.951833)" d="M474.149 504.232C478.985 494.77 489.568 484.833 500.049 482.168C515.84 478.153 526.543 485.498 542.615 479.377C537.167 486.642 529.344 489.859 526.492 496.518C522.059 506.866 533.489 522.234 533.28 534.057C533.074 545.698 529.072 554.747 527.895 566.774C528.03 568.865 527.511 578.742 528.404 579.523C528.589 579.467 528.457 579.526 528.865 579.231C531.383 556.819 539.819 557.129 537.703 533.995C543.287 547.254 542.773 567.711 540.786 581.868L541.998 581.451C543.845 575.807 546.342 568.662 547.376 562.906C553.232 579.008 557.452 588.689 557.409 606.505C557.345 633.482 548.346 658.353 542.952 684.238C531.748 738.01 519.935 792.729 515.042 847.484C514.223 856.66 512.717 871.672 513.007 880.504L512.017 880.424C511.938 869.001 510.552 854.074 509.475 842.498C506.01 807.694 500.992 773.062 494.435 738.706C491.958 724.802 489.094 710.968 485.846 697.223C477.898 664.259 465.26 624.862 473.732 591.105C479.925 569.215 498.764 553.887 508.288 533.506C519.402 509.723 494.646 495.504 474.149 504.232Z"/><path fill="#8E8F93" transform="scale(0.951833 0.951833)" d="M528.205 584.689C527.666 580.052 526.81 571.245 527.895 566.774C528.03 568.865 527.511 578.742 528.404 579.523C528.589 579.467 528.457 579.526 528.865 579.231C529.106 581.43 528.618 582.541 528.205 584.689Z"/><path fill="#8E8F93" transform="scale(0.951833 0.951833)" d="M541.998 581.451C541.889 581.76 541.784 582.071 541.684 582.384C541.546 582.829 541.301 584.058 540.739 584.186L540.549 583.971C540.444 583.093 540.562 582.721 540.786 581.868L541.998 581.451Z"/><path fill="#0C0C0C" transform="scale(0.951833 0.951833)" d="M712.18 213.375C776.061 273.597 795.143 353.339 729.077 422.146C728.694 422.537 728.305 422.922 727.909 423.3L726.201 424.509C723.618 427.904 712.06 437.752 708.362 441.008C696.368 451.569 684.331 462.178 671.893 472.211C672.567 459.873 671.661 433.963 665.429 423.342C684.207 403.642 701.937 382.296 714.877 358.242L716.008 355.959C733.232 324.908 737.42 282.163 727.213 248.279C723.138 234.753 718.959 225.654 712.18 213.375Z"/><path fill="#0C0C0C" transform="scale(0.951833 0.951833)" d="M714.877 358.242C727.453 379.015 733.047 396.965 727.001 421.393C726.743 422.434 726.476 423.472 726.201 424.509C723.618 427.904 712.06 437.752 708.362 441.008C696.368 451.569 684.331 462.178 671.893 472.211C672.567 459.873 671.661 433.963 665.429 423.342C684.207 403.642 701.937 382.296 714.877 358.242Z"/><path fill="#FDFDFC" transform="scale(0.951833 0.951833)" d="M716.008 355.959C728.568 374.907 734.132 393.483 729.564 416.444C729.108 418.751 728.556 421.039 727.909 423.3L726.201 424.509C726.476 423.472 726.743 422.434 727.001 421.393C733.047 396.965 727.453 379.015 714.877 358.242L716.008 355.959Z"/><path fill="#0C0C0C" transform="scale(0.951833 0.951833)" d="M670.498 271.287C692.161 278.251 712.588 300.242 716.525 323.302C717.26 327.607 713.448 335.421 711.847 339.701C700.436 370.197 680.923 395.545 659.49 419.649C653.465 426.113 647.337 432.48 641.108 438.749C642.434 424.327 638.8 397.173 632.315 384.843C657.367 345.054 667.607 318.035 670.498 271.287Z"/><path fill="#0C0C0C" transform="scale(0.951833 0.951833)" d="M354.858 271.538C356.428 271.636 355.997 272.361 356.044 273.683C357.244 307.132 367.044 339.226 383.565 368.242C386.425 373.264 389.744 379.748 393.601 383.974C385.56 402.237 383.956 417.639 384.126 437.13C378.079 431.196 372.278 425.015 366.739 418.604C339.588 389.035 320.159 359.785 308.551 321.254C314.728 299.581 333.555 279.128 354.858 271.538Z"/><path fill="#0C0C0C" transform="scale(0.951833 0.951833)" d="M312.144 214.969C312.439 216.459 310.178 220.272 309.395 221.725C292.651 252.802 288.864 290.393 298.448 324.36C301.536 335.303 305.862 345.913 310.334 356.779C295.527 375.631 291.643 399.693 297.622 422.632C294.273 418.627 290.903 414.64 287.511 410.672C232.221 346.183 253.873 267.387 312.144 214.969Z"/><path fill="#0C0C0C" transform="scale(0.951833 0.951833)" d="M307.429 315.231C301.115 293.703 303.931 263.327 311.489 242.483C326.693 200.553 362.374 167.9 401.71 148.825L402.547 150.065C379.961 171.801 363.827 207.413 358.766 238.202C357.018 248.834 356.542 257.986 356.216 268.723C333.757 274.447 313.696 292.7 307.429 315.231Z"/><path fill="#0C0C0C" transform="scale(0.951833 0.951833)" d="M620.281 147.931C627.454 150.173 635.992 155.33 642.445 159.327C694.774 191.744 734.041 248.861 719.711 313.17C719.506 314.648 719.754 314.154 718.921 315.283C717.662 313.074 717.005 310.593 716.006 308.248C708.241 290.024 690.126 272.621 670.307 268.866C669.351 222.508 653.534 180.956 620.281 147.931Z"/><path fill="#0C0C0C" transform="scale(0.951833 0.951833)" d="M631.244 386.82C638.103 409.493 639.125 419.651 637.9 443.194C604.281 481.033 576.369 514.912 568.124 566.389L567.863 567.867L567.365 567.928C566.13 565.328 564.782 559.82 564.365 556.941C555.393 495.022 598.061 433.997 631.244 386.82Z"/><path fill="#0C0C0C" transform="scale(0.951833 0.951833)" d="M745.426 420.033C749.576 425.399 752.504 430.275 755.817 436.18C761.455 446.315 765.213 456.214 766.333 467.789C752.329 484.974 717.162 498.705 697.189 507.54C689.703 510.851 681.396 515.129 673.982 518.237C680.877 501.999 686.663 484.513 689.671 467.106C704.6 456.023 719.629 445.313 732.914 432.232C737.043 428.167 741.139 423.914 745.426 420.033Z"/><path fill="#0C0C0C" transform="scale(0.951833 0.951833)" d="M281.294 419.451C296.385 438.394 319.088 452.196 336.389 467.569C340.525 485.468 344.233 502.116 352.802 518.665C327.089 505.602 278.626 487.593 259.228 467.445C260.089 459.448 262.127 451.432 265.644 444.173C270.837 435.05 275.413 428.118 281.294 419.451Z"/><path fill="#0C0C0C" transform="scale(0.951833 0.951833)" d="M388.012 442.726C386.567 426.488 387.629 410.143 392.396 394.507C393.295 391.557 394.134 388.595 394.807 385.585C410.527 410.608 427.009 432.739 439.744 459.759C455.781 493.784 461.652 524.589 459.022 561.86C458.635 562.654 458.252 563.449 457.873 564.247C451.843 516.651 419.532 476.476 388.012 442.726Z"/><path fill="#0C0C0C" transform="scale(0.951833 0.951833)" d="M664.359 424.457L664.636 424.767C668.434 442.826 671.101 456.885 668.326 475.636C632.681 501.531 593.405 537.621 575.218 578.374L573.256 582.387C576.563 526.745 610.964 483.211 647.14 443.93C653.014 437.552 658.386 430.732 664.359 424.457Z"/><path fill="#0C0C0C" transform="scale(0.951833 0.951833)" d="M222.855 436.194C222.725 434.857 222.373 424.917 223.712 431.564C238.391 475.361 267.113 491.355 306.828 507.849C311.77 524.551 318.097 537.215 328.925 550.953C294.437 545.291 267.719 540.922 245.667 510.599C231.332 490.888 223.61 460.556 222.855 436.194Z"/><path fill="#737376" transform="scale(0.951833 0.951833)" d="M222.855 436.194C222.725 434.857 222.373 424.917 223.712 431.564C222.772 433.342 223.039 434.062 222.855 436.194Z"/><path fill="#0C0C0C" transform="scale(0.951833 0.951833)" d="M801.329 432.621C801.516 431.674 801.58 431.334 802.003 430.481C802.079 430.426 802.154 430.37 802.23 430.315C802.872 430.636 802.246 435.727 802.145 436.539C801.165 462.381 793.513 492.733 778.171 513.594C756.877 542.552 730.546 545.466 697.962 550.651C709.064 536.209 715.985 524.936 720.369 507.132C760.847 490.239 785.22 475.662 801.329 432.621Z"/><path fill="#2C292C" transform="scale(0.951833 0.951833)" d="M801.329 432.621C801.516 431.674 801.58 431.334 802.003 430.481C802.079 430.426 802.154 430.37 802.23 430.315C802.872 430.636 802.246 435.727 802.145 436.539C801.94 434.849 802.069 434.117 801.329 432.621Z"/><path fill="#0C0C0C" transform="scale(0.951833 0.951833)" d="M311.215 359.244C312.832 360.684 320.378 373.038 322.043 375.642C325.284 380.725 328.688 385.702 332.252 390.565C340.847 402.15 351.272 413.235 360.977 424.001C355.865 439.869 353.581 455.574 354.871 472.283L351.159 469.056C334.167 455.138 315.616 439.797 299.729 424.521C299.141 422.418 298.63 420.294 298.197 418.154C293.569 396.029 299.19 377.687 311.215 359.244Z"/><path fill="#0C0C0C" transform="scale(0.951833 0.951833)" d="M362.457 425.612C369.361 432.745 377.198 441.758 383.891 449.297C417.102 486.702 445.968 523.399 451.156 574.825C451.269 575.586 451.908 579.799 451.237 580.327C450.997 580.228 450.851 579.813 450.728 579.572C438.229 548.14 410.2 517.445 384.509 496.095C376.222 489.208 366.982 482.654 358.951 475.746C356.588 459.376 358.862 441.618 362.457 425.612Z"/><path fill="#737376" transform="scale(0.951833 0.951833)" d="M451.156 574.825C451.269 575.586 451.908 579.799 451.237 580.327C450.997 580.228 450.851 579.813 450.728 579.572C450.951 577.919 451.042 576.479 451.156 574.825Z"/><path fill="#0C0C0C" transform="scale(0.951833 0.951833)" d="M242.342 324.615C242.581 323.454 242.633 323.199 243.255 322.278L243.333 322.269C243.854 322.705 243.199 329.177 243.078 330.101C244.302 366.08 255.612 392.144 280.352 418.233L281.294 419.451C275.413 428.118 270.837 435.05 265.644 444.173L264.769 443.217C261.186 450.653 259.293 456.353 256.752 464.122C249.863 457.624 242.953 446.74 239.137 438.101C222.873 401.277 228.188 361.023 242.342 324.615Z"/><path fill="#D2D3D3" transform="scale(0.951833 0.951833)" d="M280.352 418.233L281.294 419.451C275.413 428.118 270.837 435.05 265.644 444.173L264.769 443.217C269.096 434.469 274.994 426.344 280.352 418.233Z"/><path fill="#2C292C" transform="scale(0.951833 0.951833)" d="M242.342 324.615C242.581 323.454 242.633 323.199 243.255 322.278L243.333 322.269C243.854 322.705 243.199 329.177 243.078 330.101C242.892 328.115 243.204 326.317 242.342 324.615Z"/><path fill="#0C0C0C" transform="scale(0.951833 0.951833)" d="M781.209 321.19C782.629 323.869 783.708 326.483 784.833 329.299C801.394 370.746 802.921 431.366 768.976 464.717C765.6 453.171 762.464 446.242 757.01 435.685L755.817 436.18C752.504 430.275 749.576 425.399 745.426 420.033C746.358 419.728 746.26 419.664 746.178 418.72C763.616 397.934 777.28 377.676 780.799 349.977C781.812 342.001 782.592 334.049 781.877 325.982C781.728 324.375 781.506 322.776 781.209 321.19Z"/><path fill="#D2D3D3" transform="scale(0.951833 0.951833)" d="M745.426 420.033C746.358 419.728 746.26 419.664 746.178 418.72C750.455 424.55 753.499 429.316 757.01 435.685L755.817 436.18C752.504 430.275 749.576 425.399 745.426 420.033Z"/><path fill="#0C0C0C" transform="scale(0.951833 0.951833)" d="M715.359 508.601L715.755 508.961C714.307 521.276 702.919 542.216 694.306 551.172C654.352 557.398 606.793 574.802 580.494 606.814L580.044 606.444C581.479 601.328 590.302 586.957 593.501 582.914C623.189 545.398 670.714 522.643 715.359 508.601Z"/><path fill="#0C0C0C" transform="scale(0.951833 0.951833)" d="M310.593 508.48C334.147 517.521 353.516 524.284 375.868 536.313C402.821 550.818 436.25 577.917 445.328 607.697C444.359 606.892 440.266 601.759 439.017 600.359C435.346 596.313 431.359 592.566 427.093 589.152C401.482 568.565 364.086 557.191 332.232 551.251C320.392 537.434 315.286 525.667 310.593 508.48Z"/><path fill="#0C0C0C" transform="scale(0.951833 0.951833)" d="M686.034 469.995C686.253 471.496 685.458 475.796 685.179 477.431C682.425 493.566 678.022 505.669 670.565 520.136C632.996 536.581 599.002 563.34 576.204 597.602C576.275 595 577.239 592.235 578.041 589.77C591.957 546.995 625.617 514.944 660.746 488.723C669.074 482.507 677.417 475.896 686.034 469.995Z"/><path fill="#0C0C0C" transform="scale(0.951833 0.951833)" d="M339.815 470.704C346.088 473.64 356.184 482.669 362.124 486.874C371.92 493.81 382.376 501.633 391.385 509.537C415.531 530.724 442.396 564.741 449.103 596.64C447.129 595.163 440.692 585.413 438.571 582.544C417.609 554.203 387.136 535.932 356.265 520.429C346.816 503.847 342.51 489.353 339.815 470.704Z"/><path fill="#0C0C0C" transform="scale(0.951833 0.951833)" d="M712.313 558.243C713.575 558.14 712.949 558.079 714.191 558.439C712.943 564.277 693.35 590.906 688.256 596.709C650.414 585.979 618.641 592.522 585.719 612.723L579.633 617.005C608.579 577.729 665.224 559.518 712.313 558.243Z"/><path fill="#0C0C0C" transform="scale(0.951833 0.951833)" d="M310.24 558.569C346.977 560.102 383.572 567.632 414.506 588.392C424.856 595.337 438.969 605.961 445.25 616.945C411.129 591.065 376.688 587.111 336.772 596.813C336.328 596.523 335.883 596.232 335.439 595.942C335.112 595.166 335.026 594.918 334.504 594.247C325.753 583.013 317.422 570.888 310.24 558.569Z"/><path fill="#0C0C0C" transform="scale(0.951833 0.951833)" d="M239.767 522.358C254.317 542.531 274.239 555.351 298.961 557.429C301.654 557.656 305.262 557.942 307.87 558.478L308.846 558.685C309.328 558.652 309.76 558.63 310.24 558.569C317.422 570.888 325.753 583.013 334.504 594.247C335.026 594.918 335.112 595.166 335.439 595.942L334.941 596.785L334.549 597.186C324.828 600.616 302.181 595.512 292.656 590.831C263.275 576.393 250.409 551.293 239.767 522.358Z"/><path fill="#D2D3D3" transform="scale(0.951833 0.951833)" d="M308.846 558.685C309.328 558.652 309.76 558.63 310.24 558.569C317.422 570.888 325.753 583.013 334.504 594.247C335.026 594.918 335.112 595.166 335.439 595.942L334.941 596.785C334.512 596.145 334.29 595.845 333.815 595.226C324.875 583.582 316.479 571.2 308.846 558.685Z"/><path fill="#0C0C0C" transform="scale(0.951833 0.951833)" d="M784.307 524.404C784.368 524.724 784.49 525.211 784.386 525.516C769.449 569.339 741.892 600.886 692.618 596.734L691.95 596.444L691.703 595.809C700.753 583.495 708.487 570.358 717.029 558.625C720.787 557.925 725.367 557.602 729.306 556.948C751.806 553.216 770.846 542.895 784.307 524.404Z"/><path fill="#0C0C0C" transform="scale(0.951833 0.951833)" d="M342.311 605.429C372.107 594.944 394.772 595.827 423.671 609.743C430.678 613.183 437.376 617.219 443.692 621.807C421.209 614.118 397.505 616.659 376.586 627.352C374.954 628.187 372.298 629.62 370.609 630.036C369.975 630.16 369.185 630.289 368.574 630.462C358.766 623.817 349.433 614.514 340.959 606.29C341.409 606.023 341.869 605.714 342.311 605.429Z"/><path fill="#D2D3D3" transform="scale(0.951833 0.951833)" d="M340.959 606.29C341.409 606.023 341.869 605.714 342.311 605.429C348.343 612.66 362.723 624.629 370.609 630.036C369.975 630.16 369.185 630.289 368.574 630.462C358.766 623.817 349.433 614.514 340.959 606.29Z"/><path fill="#0C0C0C" transform="scale(0.951833 0.951833)" d="M583.219 621.483C610.668 599.764 651.086 590.876 683.73 605.934C683.548 606.104 683.365 606.273 683.183 606.443C677.781 611.728 672.178 616.805 666.388 621.661C665.096 622.74 658.413 627.987 657.825 628.678C657.271 628.958 655.801 629.882 655.32 629.663C629.495 617.914 612.009 613.588 583.219 621.483Z"/><path fill="#0C0C0C" transform="scale(0.951833 0.951833)" d="M685.371 606.239C706.58 614.162 726.196 608.013 744.273 595.803C723.875 623.859 693.765 648.795 657.851 631.127L657.713 630.404L658.086 629.922L657.825 628.678C658.413 627.987 665.096 622.74 666.388 621.661C672.178 616.805 677.781 611.728 683.183 606.443C683.365 606.273 683.548 606.104 683.73 605.934C684.623 605.993 684.606 605.943 685.371 606.239Z"/><path fill="#D2D3D3" transform="scale(0.951833 0.951833)" d="M683.73 605.934C684.623 605.993 684.606 605.943 685.371 606.239C683.593 607.385 682.142 609.241 680.539 610.67C673.27 617.153 665.803 623.998 658.086 629.922L657.825 628.678C658.413 627.987 665.096 622.74 666.388 621.661C672.178 616.805 677.781 611.728 683.183 606.443C683.365 606.273 683.548 606.104 683.73 605.934Z"/><path fill="#0C0C0C" transform="scale(0.951833 0.951833)" d="M284.381 597.67C298.31 607.059 315.519 611.939 332.221 608.595C335.174 607.989 338.091 607.219 340.959 606.29C349.433 614.514 358.766 623.817 368.574 630.462L368.651 631.202C367.029 632.631 364.918 633 362.927 633.748C331.558 645.536 301.243 624.057 283.936 599.076L284.381 597.67Z"/><path fill="#0C0C0C" transform="scale(0.951833 0.951833)" d="M648.689 635.364C648.936 635.512 649.55 635.726 649.802 635.821C652.515 636.397 656.084 639.179 658.761 640.5C672.608 647.334 682.903 649.174 697.403 643.742C676.796 660.477 650.742 674.149 627.438 654.832C626.116 653.735 623.588 652.272 622.712 650.844L622.04 649.97C627.492 647.156 632.683 644.692 638.065 641.575C641.379 639.656 645.396 637.028 648.689 635.364Z"/><path fill="#B2B4B8" transform="scale(0.951833 0.951833)" d="M648.689 635.364C648.936 635.512 649.55 635.726 649.802 635.821C641.367 641.347 631.767 646.434 622.712 650.844L622.04 649.97C627.492 647.156 632.683 644.692 638.065 641.575C641.379 639.656 645.396 637.028 648.689 635.364Z"/><path fill="#0C0C0C" transform="scale(0.951833 0.951833)" d="M375.355 636.173C375.801 635.834 376.073 635.674 376.425 635.265C379.86 638.409 397.242 646.483 402.015 650.152L401.758 650.595L402.263 651.174L402.054 652.051C378.987 675.216 349.05 661.086 327.802 643.882C341.209 649.016 352.715 647.262 365.554 641.308C368.712 639.843 372.247 637.16 375.355 636.173Z"/><path fill="#D2D3D3" transform="scale(0.951833 0.951833)" d="M375.355 636.173C375.801 635.834 376.073 635.674 376.425 635.265C379.86 638.409 397.242 646.483 402.015 650.152L401.758 650.595C398.565 649.595 378.187 638.349 375.355 636.173Z"/><path fill="#0C0C0C" transform="scale(0.951833 0.951833)" d="M376.425 635.265C403.726 619.579 427.275 616.94 454.518 635.233C437.771 632.713 424.929 634.311 411.1 644.724C408.808 646.449 404.697 650.562 402.015 650.152C397.242 646.483 379.86 638.409 376.425 635.265Z"/><path fill="#0C0C0C" transform="scale(0.951833 0.951833)" d="M572.264 635.424C582.525 627.579 594.968 623.111 607.876 622.638C619.477 622.307 640.579 627.772 648.689 635.364C645.396 637.028 641.379 639.656 638.065 641.575C632.683 644.692 627.492 647.156 622.04 649.97C620.041 649.363 614.91 644.426 612.533 642.901C599.956 634.831 586.689 632.546 572.264 635.424Z"/><path fill="#0C0C0C" transform="scale(0.951833 0.951833)" d="M409.464 652.848C418.067 657.107 423.398 658.44 431.663 661.662C431.168 662.237 431.411 661.933 430.938 662.575C415.501 680.981 397.172 682.859 376.717 671.081C387.67 671.164 394.837 667.707 402.661 660.086C404.762 658.039 406.244 655.183 408.645 653.565L409.464 652.848Z"/><path fill="#B2B4B8" transform="scale(0.951833 0.951833)" d="M409.464 652.848C418.067 657.107 423.398 658.44 431.663 661.662C431.168 662.237 431.411 661.933 430.938 662.575C424.073 659.389 417 658 408.645 653.565L409.464 652.848Z"/><path fill="#0C0C0C" transform="scale(0.951833 0.951833)" d="M594.352 661.258C601.657 659.526 609.631 656.055 616.324 652.743L617.325 653.625C626.956 664.566 633.161 670.99 648.412 671.237C626.57 682.297 611.695 681.557 595.007 662.535C595.071 661.712 595.04 661.718 594.352 661.258Z"/><path fill="#8E8F93" transform="scale(0.951833 0.951833)" d="M594.352 661.258C601.657 659.526 609.631 656.055 616.324 652.743L617.325 653.625C610.592 656.269 604.095 659.81 597.012 661.588C596.38 661.747 595.575 662.241 595.007 662.535C595.071 661.712 595.04 661.718 594.352 661.258Z"/><path fill="#0C0C0C" transform="scale(0.951833 0.951833)" d="M409.464 652.848C413.167 648.444 422.228 643.109 427.725 641.101C437.952 637.366 450.945 639.108 460.599 643.498C442.029 649.276 444.794 648.322 431.663 661.662C423.398 658.44 418.067 657.107 409.464 652.848Z"/><path fill="#0C0C0C" transform="scale(0.951833 0.951833)" d="M566.13 643.717C584.251 635.171 599.256 638.806 614.195 650.627C614.916 651.198 616.16 651.801 616.324 652.743C609.631 656.055 601.657 659.526 594.352 661.258C585.957 654.255 582.187 646.225 568.246 644.035L566.13 643.717Z"/><path fill="#0C0C0C" transform="scale(0.951833 0.951833)" d="M458.62 667.487C462.252 659.498 463.356 658.087 468.957 651.155C470.049 654.592 475.578 666.616 473.894 668.931C473.505 669.451 473.426 669.556 472.996 670.058C465.101 679.154 458.045 681.295 446.423 681.617C450.414 678.943 453.303 676.949 455.89 672.695C456.605 671.52 457.41 669.53 458.235 668.78C458.376 668.335 458.512 667.942 458.62 667.487Z"/><path fill="#0C0C0C" transform="scale(0.951833 0.951833)" d="M458.235 668.78C463.208 669.493 468.109 669.524 472.996 670.058C465.101 679.154 458.045 681.295 446.423 681.617C450.414 678.943 453.303 676.949 455.89 672.695C456.605 671.52 457.41 669.53 458.235 668.78Z"/><path fill="#737376" transform="scale(0.951833 0.951833)" d="M458.235 668.78C458.376 668.335 458.512 667.942 458.62 667.487C462.208 668.331 470.212 669.056 473.894 668.931C473.505 669.451 473.426 669.556 472.996 670.058C468.109 669.524 463.208 669.493 458.235 668.78Z"/><path fill="#0C0C0C" transform="scale(0.951833 0.951833)" d="M556.146 651.309C560.49 656.806 562.774 660.14 565.893 666.555C566.04 666.889 566.187 667.223 566.334 667.556C570.139 675.024 572.369 677.306 579.036 681.86C569.098 681.761 558.708 679.525 552.975 670.466C552.687 669.593 552.579 669.635 551.805 669.012C549.948 667.241 555.189 654.188 556.146 651.309Z"/><path fill="#0C0C0C" transform="scale(0.951833 0.951833)" d="M556.146 651.309C560.49 656.806 562.774 660.14 565.893 666.555C566.04 666.889 566.187 667.223 566.334 667.556C562.061 669.15 556.952 668.574 552.975 670.466C552.687 669.593 552.579 669.635 551.805 669.012C549.948 667.241 555.189 654.188 556.146 651.309Z"/><path fill="#737376" transform="scale(0.951833 0.951833)" d="M565.893 666.555C566.04 666.889 566.187 667.223 566.334 667.556C562.061 669.15 556.952 668.574 552.975 670.466C552.687 669.593 552.579 669.635 551.805 669.012C554.977 668.816 563.084 667.611 565.893 666.555Z"/><path fill="#0C0C0C" transform="scale(0.951833 0.951833)" d="M437.02 663.702C437.233 663.412 437.446 663.121 437.659 662.83C442.066 664.359 446.892 664.843 451.412 665.945L451.424 667.086C451.521 668.672 450.967 669.315 449.996 670.745C446.31 676.22 440.516 679.918 433.998 680.956C427.385 681.901 423.186 681.39 416.675 680.23C426.634 676.003 430.273 671.907 437.02 663.702Z"/><path fill="#8E8F93" transform="scale(0.951833 0.951833)" d="M437.02 663.702C437.233 663.412 437.446 663.121 437.659 662.83C442.066 664.359 446.892 664.843 451.412 665.945L451.424 667.086C446.715 665.773 441.673 665.274 437.02 663.702Z"/><path fill="#0C0C0C" transform="scale(0.951833 0.951833)" d="M573.577 667.775C576.384 666.802 585.849 664.332 588.626 663.799C596.599 672.72 596.994 675.191 609.125 680.229L606.751 680.53C590.834 682.633 582.942 681.567 573.577 667.775Z"/><path fill="#0C0C0C" transform="scale(0.951833 0.951833)" d="M561.486 650.037C557.565 646.916 569.291 649.274 570.533 649.725C576.458 650.244 584.12 658.038 587.869 662.458C588.195 663.144 588.205 663.19 588.626 663.799C585.849 664.332 576.384 666.802 573.577 667.775C573.264 667.259 573.104 666.975 572.834 666.437C568.237 660.039 571.223 656.335 561.486 650.037Z"/><path fill="#737376" transform="scale(0.951833 0.951833)" d="M587.869 662.458C588.195 663.144 588.205 663.19 588.626 663.799C585.849 664.332 576.384 666.802 573.577 667.775C573.264 667.259 573.104 666.975 572.834 666.437C577.463 665.657 583.7 664.911 587.869 662.458Z"/><path fill="#0C0C0C" transform="scale(0.951833 0.951833)" d="M437.659 662.83C443 656.478 451.427 648.722 460 648.047C460.552 648.004 463.244 647.817 463.792 648.224C463.84 648.335 463.813 648.651 463.754 648.71C459.813 652.681 456.76 656.569 454.462 661.738C453.554 663.78 453.51 665.554 451.412 665.945C446.892 664.843 442.066 664.359 437.659 662.83Z"/><path fill="#737376" transform="scale(0.951833 0.951833)" d="M512.017 880.424L513.007 880.504C513.02 882.023 513.286 883.243 512.544 884.451C512.167 884.129 512.139 884.107 512.191 883.625C512.109 882.514 512.035 881.542 512.017 880.424Z"/><path fill="#B2B4B8" transform="scale(0.951833 0.951833)" d="M512.191 883.625C512.43 883.98 512.409 884.015 512.544 884.451C512.167 884.129 512.139 884.107 512.191 883.625Z"/><path fill="#0C0C0C" transform="scale(0.951833 0.951833)" d="M401.71 148.825C402.381 148.474 404.408 147.154 405.017 147.344C405.196 147.765 402.85 149.776 402.547 150.065L401.71 148.825Z"/><path fill="#737376" transform="scale(0.951833 0.951833)" d="M459.022 561.86C459.011 562.617 459.203 565.131 458.523 565.542C458.026 565.423 457.967 564.632 457.873 564.247C458.252 563.449 458.635 562.654 459.022 561.86Z"/><path fill="#2C292C" transform="scale(0.951833 0.951833)" d="M283.936 599.076L283.35 598.313C283.103 597.994 282.266 597.13 282.378 596.652C282.987 596.365 283.927 597.301 284.381 597.67L283.936 599.076Z"/></svg>