<?xml version="1.0" encoding="utf-8" ?><svg xmlns="http://www.w3.org/2000/svg" xmlns:xlink="http://www.w3.org/1999/xlink" width="1024" height="1024" viewBox="0 0 1024 1024"><path fill="white" d="M0 0L1024 0L1024 1024L0 1024L0 0Z"/><path fill="#111" d="M462.57 481.252C472.049 477.482 478.999 468.019 485.106 460.116C508.021 430.463 529.749 412.682 567.068 404.852L567.448 405.873C549.064 414.183 534.631 429.316 527.199 448.073C521.104 463.742 521.512 478.979 520.514 495.434C519.134 518.202 518.41 539.846 522.179 562.435C524.544 576.612 529.34 586.991 533.242 600.29C544.744 640.357 557.035 682.711 556.357 724.752C555.929 751.295 548.56 781.42 538.466 805.83C527.394 832.606 514.066 860.952 512.968 890.675L512.678 890.962C512.473 891.167 512.451 891.274 512.229 891.276C511.987 891.031 511.661 889.751 511.509 889.351C511.623 885.29 510.554 878.876 509.952 874.792C506.895 854.051 499.609 834.832 490.451 816.085C487.212 809.455 483.96 800.87 481.409 793.768C473.717 772.265 469.613 749.644 469.259 726.81C468.637 676.03 481.835 627.299 498.698 579.607C507.556 554.553 513.841 512.882 498.694 489.222C491.671 478.251 475.067 479.039 463.697 482.271L462.57 481.252Z"/><path fill="#111" d="M526.319 132.838C536.419 135.369 546.95 137.859 556.671 141.576C590.15 154.378 623.042 181.832 641.543 212.543C667.005 254.807 663.624 312.716 651.788 358.883C639.447 407.017 615.334 452.05 587.734 493.167C604.263 511.186 608.835 542.746 607.901 566.41C606.532 601.092 591.081 633.972 567.607 659.226L566.644 658.786C577.023 638.01 585.77 617.138 585.212 593.314C584.635 568.664 574.058 536.365 546.008 532.158C550.513 524.008 555.092 515.562 560.214 507.794C632.757 397.775 651.344 213.95 526.319 132.838Z"/><path fill="#111" d="M495.136 134.087L495.98 134.237C458.485 159.681 433.144 192.63 419.884 235.996C397.503 309.191 407.119 396.847 440.016 465.044C445.165 475.718 450.833 486.133 456.998 496.253C465.262 509.755 471.1 517.708 478.467 532.116C461.173 535.292 450.272 548.859 444.67 564.879C436.071 589.468 440.129 618.308 449.709 641.984C452.772 649.555 456.822 656.13 460.333 663.432C456.697 658.465 452.815 653.447 449.107 648.51C430.02 622.574 419.267 598.669 417.085 565.829C415.562 542.902 420.911 511.498 436.718 493.74C409.001 452.639 384.903 406.703 372.517 358.439C359.036 305.91 358.022 256.349 386.725 208.085C404.349 178.451 433.788 156.281 465.379 143.006C474.779 139.056 485.222 136.559 495.136 134.087Z"/><path fill="#111" d="M593.123 149.983C597.024 150.48 602.723 152.445 606.589 153.693C624.087 159.343 639.74 167.331 654.441 178.41C684.455 200.792 704.245 234.271 709.385 271.357C711.617 287.667 710.355 303.713 707.058 319.758C694.204 382.309 654.21 431.73 616.877 481.246C611.784 488.092 606.978 495.147 602.474 502.394C599.129 497.406 598.316 496.448 593.713 492.812C595.001 491.082 596.251 489.325 597.463 487.542C603.243 478.892 608.689 469.051 613.977 460.052C672.274 360.84 706.349 226.147 593.123 149.983Z"/><path fill="#111" d="M428.533 150.586L429.559 150.588C428.803 151.881 415.71 161.623 413.618 163.366C330.841 232.351 351.247 344.812 393.731 429.926C404.54 451.584 417.827 472.287 430.692 492.991C426.978 496.623 425.409 498.369 422.348 502.553C417.887 495.967 414.707 490.687 409.84 484.246C373.193 435.919 337.713 392.864 320.958 333.175C297.273 248.797 343.88 171.592 428.533 150.586Z"/><path fill="#111" d="M683.947 190.758C686.891 191.774 695.565 198.79 698.31 200.959C740.674 234.419 766.247 281.225 754.036 336.249C737.73 409.723 669.607 452.143 624.897 507.529C619.435 514.924 616.038 520.114 611.555 528.136C609.616 521.627 607.531 515.162 605.301 508.747C609.893 498.331 628.375 474.157 636.024 464.006C671.076 417.485 707.15 368.366 715.399 309.05C719.71 278.058 714.856 244.717 700.755 216.658C696.141 207.476 690.14 198.941 683.947 190.758Z"/><path fill="#111" d="M340.521 191.006L340.851 191.537C339.408 193.593 337.578 195.608 335.986 197.619C314.46 224.832 306.001 258.087 307.228 292.738C309.299 351.279 342.649 402.944 376.516 448.549C390.976 468.022 407.732 487.501 419.776 508.598C416.544 514.567 414.416 522.232 413.066 528.863C408.703 520.119 406.729 516.263 400.931 508.327C392.937 497.588 381.577 486.985 372.19 477.34C348.355 453.149 323.73 431.26 303.233 404.083C270.872 361.174 255.083 311.291 278.518 259.785C293.176 227.569 313.204 211.362 340.521 191.006Z"/><path fill="#111" d="M760.195 262.244C763.087 264.156 769.077 273.411 771.204 276.668C785.019 297.824 794.255 320.976 795.096 346.536C795.554 361.839 793.121 377.092 787.924 391.494C769.641 443.746 723.599 466.788 681.431 496.926C659.622 512.513 645.633 524.365 627.565 543.693C623.564 547.916 619.006 553.806 615.458 558.416C615.583 551.164 614.813 546.225 613.873 539.024C627.335 502.691 681.843 456.897 708.891 427.913C722.17 413.684 732.951 400.754 743.198 383.986C760.087 356.348 769.044 324.938 766.141 292.397C765.199 281.841 762.729 272.497 760.195 262.244Z"/><path fill="#111" d="M264.963 261.462C264.752 264.646 261.778 272.453 260.987 276.276C245.408 351.531 292.139 408.046 342.95 455.955C366.691 480.967 397.743 505.084 410.108 538.137C410.736 539.817 409.459 556.137 409.503 559.574C405.786 554.483 401.898 549.518 397.844 544.69C375.815 520.081 339.027 492.845 310.816 475.161C228.94 423.839 200.34 343.581 264.963 261.462Z"/><path fill="#111" d="M216.277 339.569C216.606 338.242 217.057 337.198 217.573 335.929C217.507 338.954 217.516 342.381 217.349 345.37C217.431 352.429 218.081 359.47 219.294 366.425C222.02 382.145 226.221 391.96 233.348 405.66C255.729 448.682 294.562 470.168 332.748 496.683C358.215 514.89 383.577 533.769 401.876 559.568C410.738 572.063 410.987 574.76 413.516 589.434C389.694 566.257 373.216 555.583 342.817 541.369C305.138 523.773 265.838 516.851 236.543 484.608C198.513 442.753 198.243 389.986 216.277 339.569Z"/><path fill="#111" d="M216.277 339.569C216.606 338.242 217.057 337.198 217.573 335.929C217.507 338.954 217.516 342.381 217.349 345.37C215.941 343.635 217.87 342.343 216.277 339.569Z"/><path fill="#111" d="M806.881 340.922L807.756 340.9C807.911 341.641 808.056 342.323 808.244 343.059C821.09 382.01 825.529 419.135 806.429 457.715C791.371 488.133 763.192 507.904 732.742 520.951C722.914 525.163 711.699 528.546 701.428 532.824C669.164 546.263 634.861 562.59 611.512 589.452C612.398 584.897 613.723 575.279 615.846 571.479C663.583 486.042 783.83 473.49 804.862 368.306C806.232 361.574 806.992 354.733 807.134 347.865C807.001 345.549 807.024 343.279 806.881 340.922Z"/><path fill="#1A1818" d="M806.881 340.922L807.756 340.9C807.911 341.641 808.056 342.323 808.244 343.059C806.961 345.34 808.312 346.51 807.134 347.865C807.001 345.549 807.024 343.279 806.881 340.922Z"/><path fill="#111" d="M195.867 429.472C195.987 430.176 196.092 430.881 196.184 431.589C199.779 445.066 203.311 452.667 210.279 464.647C255.394 542.209 362.663 528.914 412.804 601.26C416.901 607.171 419.676 613.488 422.911 619.826C407.194 608.422 394.111 600.094 375.297 593.695C354.341 586.567 333.235 582.838 311.445 579.327C301.034 577.65 288.071 576.576 278.224 573.799C228.775 559.857 204.699 519.502 197.12 471.663C195.341 459.781 194.639 447.762 195.023 435.754C195.005 433.81 195.037 431.913 194.962 429.969L195.867 429.472Z"/><path fill="#444241" d="M195.867 429.472C195.987 430.176 196.092 430.881 196.184 431.589C195.317 433.287 195.413 433.859 195.023 435.754C195.005 433.81 195.037 431.913 194.962 429.969L195.867 429.472Z"/><path fill="#111" d="M827.969 429.52L829.153 428.423C827.996 473.785 827.503 512.701 791.512 547.742C767.566 571.057 740.975 576.726 709.028 579.748C671.865 584.614 631.148 595.119 601.929 620.066C618.981 582.313 657.153 557.565 694.228 543.068C737.606 526.105 781.139 512.189 809.025 472.062C817.321 460.124 826.174 444.321 827.969 429.52Z"/><path fill="#111" d="M201.449 523.917C231.399 570.068 264.79 582.159 316.725 587.079C345.031 589.76 379.625 599.485 403.432 614.755C408.933 618.283 429.878 634.157 431.183 640.207L430.276 640.051C415.745 632.92 397.511 626.585 381.519 625.314C334.76 621.598 291.125 639.934 249.921 607.822C226.831 589.827 205.013 553.143 201.449 523.917Z"/><path fill="#111" d="M820.609 526.9L822.079 524.578L822.635 524.465C822.484 525.957 822.457 526.261 822.048 527.692C820.615 533.534 818.946 539.317 817.047 545.025C809.769 566.427 797.809 586.099 781.391 601.542C749.239 631.783 715.421 628.009 674.942 625.638C661.915 624.875 652.265 624.218 639.143 625.747C619.106 628.083 609.294 633.146 592.055 641.611C628.045 599.476 672.262 590.802 724.469 585.049C761.326 580.988 791.464 566.339 813.885 536.249C816.163 533.192 818.247 529.912 820.609 526.9Z"/><path fill="#111" d="M224.808 595.38C226.122 596.48 228.865 599.983 230.029 601.43C238.396 611.826 246.167 617.074 257.557 623.43C285.516 639.032 316.368 635.49 346.961 632.786C387.966 629.161 412.482 633.298 444.616 660.907L442.98 660.298C439.086 658.824 436.113 658.176 432.069 657.201C401.707 651.165 390.07 654.909 362.721 665.969C342.092 674.311 309.652 675.047 288.759 666.501C261.821 655.483 235.805 622.282 224.808 595.38Z"/><path fill="#111" d="M795.45 600.029L796.079 601.013C794.773 603.68 793.451 606.34 792.115 608.992C766.985 658.751 726.112 683.5 670.547 668.549C655.148 664.405 643.438 656.978 628.526 654.935C611.03 652.538 596.929 655.722 580.55 661.114C587.641 653.931 597.175 648.047 605.965 643.416C633.106 628.776 664.242 630.88 693.971 634.099C733.501 638.378 768.606 632.135 795.45 600.029Z"/><path fill="#111" d="M275.606 670.594C281.947 673.523 288.062 676.205 294.975 677.79C318.576 683.053 344.312 678.857 366.847 670.82C375.083 667.883 382.486 664.458 391.015 662.366C410.806 657.514 431.691 662.166 449.275 671.721C436.409 670.389 426.371 670.454 414.003 674.974C399.632 680.226 389.832 692.377 377.63 699.317C349.077 715.556 318.308 709.884 293.313 689.958C288.492 686.114 280.747 679.391 276.853 674.635C276.205 673.839 275.587 673.021 274.998 672.181L275.606 670.594Z"/><path fill="#111" d="M578.647 669.774C597.003 660.423 619.433 657.137 639.191 663.498C646.169 665.744 652.837 669.319 659.795 671.666C689.733 680.972 725.869 686.205 753.227 667.27C734.76 688.067 716.074 705.802 686.741 708.011C664.86 709.659 647.555 702.144 631.273 688.012C617.381 675.955 605.916 671.528 587.871 670.706C586.819 670.759 576.151 671.275 576.121 671.253C576.183 670.744 578.337 669.902 578.647 669.774Z"/><path fill="#1A1818" d="M578.647 669.774C581.623 671.098 586.102 669.401 587.871 670.706C586.819 670.759 576.151 671.275 576.121 671.253C576.183 670.744 578.337 669.902 578.647 669.774Z"/><path fill="#111" d="M585.121 677.206C634.562 673.986 635.712 729.094 708.173 712.313C699.691 718.951 692.403 724.519 683.65 730.818C681.582 732.111 679.58 733.379 677.503 734.615C657.947 746.25 632.343 742.495 618.141 724.487C610.945 715.361 607.75 705.416 598.2 696.694C588.298 687.652 580.787 684.01 567.923 680.573C574.473 678.646 578.347 677.781 585.121 677.206Z"/><path fill="#111" d="M432.111 677.7C439.752 676.697 448.427 678.134 455.863 679.804C445.131 684.198 433.385 689.387 425.323 697.868C409.331 714.695 407.929 732.916 382.21 740.313C369.788 743.886 358.381 740.89 347.261 734.663C336.192 727.873 326.877 720.466 316.428 712.832C386.002 727.717 386.144 682.235 432.111 677.7Z"/><path fill="#111" d="M461.273 690.928C457.451 731.95 459.556 765.143 474.644 804.123C477.174 810.658 480.796 819.3 484.446 825.123C478.632 822.024 472.838 818.12 467.273 814.542C451.622 804.023 436.018 797.405 433.537 776.056C429.978 745.43 443.635 715.193 461.273 690.928Z"/><path fill="#111" d="M565.254 694.115C584.538 717.812 607.589 777.084 576.448 801.695C566.562 809.507 550.794 818.708 539.766 825.442C555.069 794.41 563.575 768.001 565.152 733.006C565.699 720.879 565.677 707.242 563.778 695.245L565.254 694.115Z"/><path fill="#111" d="M460.149 684.655L460.242 685.097C458.773 686.847 457.254 688.485 455.757 690.193C434.826 714.083 424.005 754.866 426.351 786.51C419.91 784.059 399.518 769.52 392.823 764.961C385.263 759.67 377.986 754.031 370.479 748.655C384.669 747.883 404.647 737.838 412.03 725.809C425.404 704.02 434.661 692.577 460.149 684.655Z"/><path fill="#111" d="M563.992 684.842C581.291 689.979 593.681 697.806 604.564 712.751C608.43 718.059 610.513 723.745 615.231 729.193C625.548 741.107 638.006 747.423 653.538 748.867C646.222 754.117 638.952 759.432 631.729 764.811C622.173 771.96 608.506 781.085 598.431 786.98C599.325 753.993 593.583 723.299 573.541 696.035C570.675 692.135 567.62 688.04 563.992 684.842Z"/><path fill="#808084" d="M511.509 889.351C511.661 889.751 511.987 891.031 512.229 891.276C512.451 891.274 512.473 891.167 512.678 890.962L512.968 890.675C513.018 891.542 512.571 896.216 512.409 897.056L512.058 897.211L512.158 897.694C512.085 897.687 512.012 897.68 511.939 897.673C511.378 896.782 511.497 890.696 511.509 889.351Z"/><path fill="#808084" d="M567.068 404.852C567.88 404.645 572.564 403.274 573.107 403.851C573.007 404.343 568.264 405.674 567.448 405.873L567.068 404.852Z"/><path fill="#A7A7A7" d="M827.969 429.52C828.183 428.332 828.336 424.578 828.961 424.064C829.944 424.404 829.302 427.787 829.153 428.423L827.969 429.52Z"/><path fill="#444241" d="M270.369 666.832C271.823 667.87 274.247 669.52 275.606 670.594L274.998 672.181C273.226 670.324 271.97 668.818 270.369 666.832Z"/><path fill="#A7A7A7" d="M461.765 482.725C460.89 482.96 458.62 483.855 457.819 483.547C457.795 483.474 457.771 483.401 457.746 483.328L457.868 483.35C458.342 482.696 458.515 482.692 459.249 482.499L460.618 482.128L461.765 482.725Z"/><path fill="#625F63" d="M795.45 600.029C798.123 596.543 797.741 598.498 796.079 601.013L795.45 600.029Z"/><path fill="#A7A7A7" d="M806.881 340.922C806.061 338.201 807.162 336.685 807.756 340.9L806.881 340.922Z"/><path fill="#1A1818" d="M567.607 659.226C567.402 659.483 566.218 661.261 565.716 661.128C565.351 660.438 566.268 659.355 566.644 658.786L567.607 659.226Z"/><path fill="#1A1818" d="M563.778 695.245C563.45 692.752 563.285 691.711 565.254 694.115L563.778 695.245Z"/><path fill="#A7A7A7" d="M194.962 429.969C194.991 429.107 195.304 426.085 195.233 425.451L195.348 425.839L195.202 425.55C195.461 426.571 195.723 428.451 195.867 429.472L194.962 429.969Z"/><path fill="#444241" d="M460.618 482.128C461.271 481.84 461.921 481.549 462.57 481.252L463.697 482.271C462.943 482.396 462.53 482.52 461.765 482.725L460.618 482.128Z"/></svg>