<?xml version="1.0" encoding="utf-8" ?><svg xmlns="http://www.w3.org/2000/svg" xmlns:xlink="http://www.w3.org/1999/xlink" width="1024" height="1024" viewBox="0 0 1024 1024"><path fill="#FDFCFB" d="M0 0L1024 0L1024 1024L0 1024L0 0Z"/><path fill="#1C1A1B" d="M499.33 440.686C503.769 458.362 510.46 469.762 526.285 479.432C537.443 486.249 540.868 491.474 542.855 504.208C546.693 505.373 553.638 507.656 555.974 511.08L556.007 512.072C554.769 513.062 553.862 512.64 552.207 512.397C530.149 509.161 522.005 524.996 520.026 543.226C517.417 567.251 526.833 581.311 535.973 602.06C546.021 627.523 554.92 655.843 554.725 683.358C554.454 721.566 537.383 755.294 524.64 790.475C518.835 806.502 513.921 827.548 512.425 844.627C512.238 844.984 512.072 845.561 511.578 845.478C511.229 845.174 511.267 845.144 511.023 844.68C510.199 829.698 507.571 814.871 503.195 800.519C500.087 790.346 495.572 779.31 491.663 769.479C480.284 741.018 469.465 709.24 470.287 678.247C471.081 648.312 480.48 617.944 492.836 590.865C503.35 567.82 509.2 550.28 510.424 524.522C512.171 487.747 484.188 479.427 499.33 440.686Z"/><path fill="#1C1A1B" d="M312.62 321.718C309.139 312.422 319.283 282.258 323.177 273.313C333.92 248.634 359.2 219.478 383.792 207.387C372.557 220.626 368.464 229.024 366.095 246.574C377.136 246.159 383.036 246.095 394.006 249.135C380.144 263.36 372.994 275.269 365.381 293.46C364.751 294.964 353.429 302.649 350.971 304.589C345.904 308.646 341.073 312.989 336.501 317.597C331.395 322.843 327.572 328.953 323.801 335.17C322.972 336.537 320.355 341.361 319.621 342.15L318.804 342.211C315.461 336.182 314.323 328.481 311.189 322.397C311.791 322.078 312.001 321.96 312.62 321.718Z"/><path fill="#E6E6E6" d="M312.62 321.718C314.503 327.53 317.429 336.751 319.621 342.15L318.804 342.211C315.461 336.182 314.323 328.481 311.189 322.397C311.791 322.078 312.001 321.96 312.62 321.718Z"/><path fill="#1C1A1B" d="M639.752 206.298C646.64 210.382 653.213 214.975 659.416 220.038C692.947 247.302 708.724 277.683 713.144 320.439C713.483 322.723 713.552 324.395 713.661 326.636C712.953 327.048 712.637 327.182 711.818 327.071L711.109 326.998C710.936 327.869 710.823 328.151 710.561 329.003C709.124 333.787 707.513 338.517 705.73 343.184L704.715 342.172C703.293 340.201 700.967 334.437 699.295 331.771C693.424 322.411 686.244 315.691 678.429 308.234C673.716 303.737 663.87 298.165 660.481 294.07C658.206 291.322 653.125 279.731 650.738 275.694C644.332 264.86 638.926 258.694 630.834 249.426C640.369 246.219 649.075 246.367 658.89 246.611C656.946 230.934 650.63 217.703 639.752 206.298Z"/><path fill="#CBCBCC" d="M712.396 320.335L713.144 320.439C713.483 322.723 713.552 324.395 713.661 326.636C712.953 327.048 712.637 327.182 711.818 327.071L711.109 326.998C710.936 327.869 710.823 328.151 710.561 329.003C709.124 333.787 707.513 338.517 705.73 343.184L704.715 342.172C706.447 338.329 711.144 321.967 712.396 320.335Z"/><path fill="#3A3534" d="M712.396 320.335L713.144 320.439C713.483 322.723 713.552 324.395 713.661 326.636C712.953 327.048 712.637 327.182 711.818 327.071L711.109 326.998C711.593 324.458 712.061 323.073 712.396 320.335Z"/><path fill="#1C1A1B" d="M318.804 342.211L320.063 345.246L320.717 345.34C330.851 327.64 343.756 312.998 361.853 302.984C352.334 333.675 350.958 348.486 351.719 380.332C343.614 388.708 338.972 395.802 334.572 406.724C333.656 408.999 330.995 416.646 330.198 418.161C329.676 418.351 329.155 418.545 328.636 418.744C322.88 414.019 324.473 414.613 320.458 410.463C320.19 410.401 319.992 410.546 319.713 410.662C318.88 409.548 318.5 408.567 318.339 407.129L318.173 405.55C311.008 388.596 307.908 340.638 311.189 322.397C314.323 328.481 315.461 336.182 318.804 342.211Z"/><path fill="#CBCBCC" d="M318.173 405.55C321.935 410.758 324.414 414.811 330.198 418.161C329.676 418.351 329.155 418.545 328.636 418.744C322.88 414.019 324.473 414.613 320.458 410.463C320.19 410.401 319.992 410.546 319.713 410.662C318.88 409.548 318.5 408.567 318.339 407.129L318.173 405.55Z"/><path fill="#1C1A1B" d="M663.666 303.238C677.46 314.039 690.766 321.802 699.686 337.928C700.86 340.049 702.364 343.237 703.901 345.001L704.722 344.889L705.73 343.184C707.513 338.517 709.124 333.787 710.561 329.003C710.823 328.151 710.936 327.869 711.109 326.998L711.818 327.071C712.637 327.182 712.953 327.048 713.661 326.636C715.918 339.849 713.958 394.229 705.849 404.55C705.854 406.331 706.103 406.713 705.204 408.161C703.566 408.62 699.192 415.489 695.297 418.593L694.489 417.876C689.797 404.308 682.514 390.581 672.476 380.209C672.714 365.906 672.875 350.191 670.793 335.968C669.274 325.595 666.141 313.571 663.666 303.238Z"/><path fill="#98999A" d="M705.849 404.55C705.854 406.331 706.103 406.713 705.204 408.161C703.566 408.62 699.192 415.489 695.297 418.593L694.489 417.876C699.721 414.277 701.856 408.329 705.849 404.55Z"/><path fill="#1C1A1B" d="M762.625 328.332C762.951 328.653 763.405 329.056 763.569 329.478C771.977 351.164 775.508 376.731 768.73 399.23C764.841 412.138 757.422 425.85 745.601 432.333C743.495 424.726 742.496 420.848 738.993 413.675C736.903 409.584 734.106 405.106 731.739 401.113C732.707 390.564 734.119 381.102 734.507 370.341C735.023 355.979 733.659 343.347 732.813 329.065C741.23 334.403 749.005 342.887 754.514 351.151C759.977 344.359 762.409 336.965 762.625 328.332Z"/><path fill="#1C1A1B" d="M292.808 328.109C292.465 333.941 290.777 341.46 290.203 347.639C288.623 364.662 289.249 384.805 293.422 401.442C284.869 411.803 281.804 420.066 278.865 432.682C267.793 425.28 264.68 420.325 259.016 408.327C258.288 406.577 257.61 404.808 256.981 403.02C249.697 382.415 251.711 348.159 261.213 328.455C262.851 338.264 264.362 343.402 269.948 351.681C280.366 338.35 279.492 338.882 292.808 328.109Z"/><path fill="#1C1A1B" d="M235.824 463.273C237.939 450.268 239.062 445.172 244.314 432.9C252.404 455.28 266.286 483.537 283.466 500.504C283.356 502.73 283.047 505.997 283.119 508.052C282.882 512.43 282.948 515.611 283.114 520.012C282.013 520.114 280.911 520.195 279.808 520.256C241.808 522.38 220.328 483.256 218.406 449.975L219.73 449.162C224.518 456.2 228.597 458.701 235.824 463.273Z"/><path fill="#1C1A1B" d="M741.507 500.784C753.336 488.063 765.949 466.668 773.029 450.808C775.534 445.196 777.661 438.576 779.885 432.744C784.739 445.918 785.772 449.211 789.067 463.084C796.408 459.264 800.87 455.779 805.28 448.851C806.288 449.775 806.228 449.68 806.743 450.956C804.727 474.42 790.658 502.904 769.636 514.966C760.516 520.199 751.638 520.694 741.427 520.463C741.225 513.877 742.223 507.274 741.507 500.784Z"/><path fill="#1C1A1B" d="M727.332 399.201C734.77 404.765 741.485 427.031 743.048 435.987C750.685 431.272 756.498 427.109 761.63 419.72C757.761 440.96 749.97 459.027 735.387 475.116C727.655 484.226 716.726 488.61 704.967 488.467C705.634 478.785 705.243 472.071 701.018 463.083C703.631 457.332 707.812 450.727 710.731 444.851C717.668 430.893 724.133 414.501 727.332 399.201Z"/><path fill="#1C1A1B" d="M297.427 398.988C297.907 399.629 301.852 416.39 302.684 418.695C308.304 434.279 315.385 449.033 323.59 463.364C319.614 473.611 319.306 477.7 320.192 488.533C307.672 488.559 299.599 483.79 290.373 475.674C274.121 459.907 268.21 442.059 262.956 420.554C269.204 428.766 272.368 430.368 280.994 436.007C283.432 421.283 288.32 410.644 297.427 398.988Z"/><path fill="#1C1A1B" d="M726.87 623.846C732.186 622.133 737.208 620.518 742.443 618.552L741.952 625.845C752.62 627.008 757.203 626.923 767.467 624.049C760.43 634.885 749.216 642.898 737.415 647.837C736.349 648.563 735.878 649.106 734.582 649.226C720.952 654.102 693.195 660.155 679.8 654.343C672.065 649.158 668.276 645.314 662.58 637.883C666.191 634.404 669.792 631.088 673.549 627.772C691.416 626.615 707.151 626.8 725.072 621.719L725.533 622.114C725.968 622.7 726.414 623.277 726.87 623.846Z"/><path fill="#1C1A1B" d="M726.87 623.846C732.186 622.133 737.208 620.518 742.443 618.552L741.952 625.845C752.62 627.008 757.203 626.923 767.467 624.049C760.43 634.885 749.216 642.898 737.415 647.837C726.32 647.057 724.324 646.715 714.301 641.549C720.75 634.865 722.415 631.68 726.87 623.846Z"/><path fill="#CBCBCC" d="M725.533 622.114C725.968 622.7 726.414 623.277 726.87 623.846C722.415 631.68 720.75 634.865 714.301 641.549C724.324 646.715 726.32 647.057 737.415 647.837C736.349 648.563 735.878 649.106 734.582 649.226C732.284 648.013 728.618 648.543 725.003 647.471C720.07 646.009 717.208 644.541 712.645 642.263C716.604 637.213 724.627 628.476 725.533 622.114Z"/><path fill="#1C1A1B" d="M281.395 619.402C284.628 620.443 296.365 622.649 297.457 623.667L298.203 623.653L298.504 622.228C300.877 621.555 311.688 624.92 315.642 625.264C323.327 625.934 330.653 626.645 338.425 626.854C340.193 626.902 349.101 627.106 350.014 627.329C351.634 629.077 353.181 630.863 354.816 632.582C355.007 632.882 355.01 632.879 355.279 633.114C357.768 636.113 358.083 636.326 361.354 638.546C359.212 641.063 357.152 643.505 354.93 645.955C347.595 653.522 344.868 656.428 333.491 656.361C318.885 656.275 303.519 654.785 289.926 649.364C289.477 649.02 289.028 648.675 288.579 648.331C288.373 648.309 288.166 648.288 287.96 648.267C273.638 643.15 264.748 634.391 255.88 623.295C265.666 627.039 271.342 626.744 281.482 626.404L281.395 619.402Z"/><path fill="#1C1A1B" d="M281.395 619.402C284.628 620.443 296.365 622.649 297.457 623.667C300.744 631.123 303.941 635.805 309.776 641.535C298.245 646.536 301.077 646.206 288.579 648.331C288.373 648.309 288.166 648.288 287.96 648.267C273.638 643.15 264.748 634.391 255.88 623.295C265.666 627.039 271.342 626.744 281.482 626.404L281.395 619.402Z"/><path fill="#CBCBCC" d="M297.457 623.667L298.203 623.653C303.775 633.175 303.741 633.861 312.111 642.176C304.074 645.566 298.446 647.693 289.926 649.364C289.477 649.02 289.028 648.675 288.579 648.331C301.077 646.206 298.245 646.536 309.776 641.535C303.941 635.805 300.744 631.123 297.457 623.667Z"/><path fill="#1C1A1B" d="M328.636 418.744C329.831 419.626 329.853 419.777 331.256 420.149C332.842 418.88 337.31 406.248 339.381 402.778C343.738 395.479 346.992 391.942 352.601 385.758C356.166 414.2 358.694 425.383 369.901 451.651C364.764 462.285 362.544 470.248 361.357 481.897C356.319 481.284 354.187 480.443 349.744 478.29C335.251 456.214 328.193 435.266 319.713 410.662C319.992 410.546 320.19 410.401 320.458 410.463C324.473 414.613 322.88 414.019 328.636 418.744Z"/><path fill="#1C1A1B" d="M654.456 451.426C664.667 429.778 669.691 410.834 672.194 386.892C678.544 393.756 682.923 399.45 687.283 407.792C688.502 410.124 691.829 419.63 692.96 420.165C693.728 419.655 694.556 419.132 695.297 418.593C699.192 415.489 703.566 408.62 705.204 408.161C698.507 429.284 688.188 462.861 671.655 479.298C670.791 480.157 664.615 481.513 663.146 481.772C661.328 470.514 659.607 461.714 654.456 451.426Z"/><path fill="#1C1A1B" d="M774.084 539.593C774.288 545.27 774.399 549.409 774.088 555.118C785.518 553.274 792.245 551.147 800.542 542.951C792.981 564.224 780.29 580.735 759.769 590.954C745.158 598.231 726.345 596.119 714.138 584.997C714.75 581.991 714.979 581.311 717.222 579.139C733.171 570.158 748.458 561.381 762.53 549.534C766.364 546.308 770.187 542.656 774.084 539.593Z"/><path fill="#1C1A1B" d="M249.324 554.89C249.248 549.855 249.553 543.631 249.695 538.552C262.226 551.124 273.329 560.134 288.767 569.02C294.755 572.467 301.81 575.684 307.542 579.206L307.991 579.487L308.538 580.21C309.845 581.897 309.946 582.81 310.423 584.866C299.697 596.45 277.861 597.523 264.259 590.638C243.982 580.375 231.282 564.067 223.746 542.981C231.186 551.24 238.617 553.042 249.324 554.89Z"/><path fill="#1C1A1B" d="M363.783 353.443C361.837 340.111 376.404 308.81 384.879 297.867C383.353 305.418 383.253 308.315 383.383 316.078C392.474 311.968 396.948 309.498 407.091 308.043C400.701 320.703 393.301 331.614 390.739 346.603C390.515 347.354 390.286 348.102 390.049 348.849C386.541 358.962 383.612 368.65 382.171 379.309C381.579 383.682 381.311 385.465 379.076 389.268C374.224 395.366 373.001 398.695 369.563 405.209C368.751 404.198 367.53 402.542 366.702 401.687C360.803 393.226 362.823 365.972 363.536 355.302C363.56 354.327 363.533 354.331 363.783 353.443Z"/><path fill="#1C1A1B" d="M390.049 348.849C386.541 358.962 383.612 368.65 382.171 379.309C381.579 383.682 381.311 385.465 379.076 389.268C374.224 395.366 373.001 398.695 369.563 405.209C368.751 404.198 367.53 402.542 366.702 401.687C360.803 393.226 362.823 365.972 363.536 355.302C366.119 359.873 366.637 362.487 369.951 367.121C375.397 359.603 379.725 353.936 388.501 349.612L390.049 348.849Z"/><path fill="#CBCBCC" d="M369.719 365.704C376.756 355.827 379.581 352.596 390.739 346.603C390.515 347.354 390.286 348.102 390.049 348.849L388.501 349.612C379.725 353.936 375.397 359.603 369.951 367.121C366.637 362.487 366.119 359.873 363.536 355.302C363.56 354.327 363.533 354.331 363.783 353.443C366.159 357.808 366.74 361.125 369.719 365.704Z"/><path fill="#1C1A1B" d="M436.803 639.925C444.924 636.655 453.014 633.306 461.071 629.88L461.999 631.034C436.172 653.983 402.61 678.107 370.127 690.374C366.424 691.772 358.394 694.339 354.556 694.725L354.127 693.585C355.793 691.957 358.063 690.151 359.855 688.551C360.428 688.756 360.996 688.94 361.55 689.185L361.927 688.239C360.091 683.629 346.87 675.787 349.101 667.26C350.314 665.973 364.977 663.067 367.773 662.383C389.194 657.093 410.228 650.345 430.727 642.186C430.946 642.058 431.164 641.93 431.382 641.803C433.661 641.32 434.621 640.754 436.803 639.925Z"/><path fill="#98999A" d="M430.727 642.186C430.946 642.058 431.164 641.93 431.382 641.803C432.601 642.761 433.817 643.726 435.027 644.696C435.886 645.328 439.458 647.53 439.627 648.184C439.255 649.304 435.368 646.253 434.869 645.873C433.258 644.645 431.916 643.82 430.727 642.186Z"/><path fill="#292524" d="M431.382 641.803C433.661 641.32 434.621 640.754 436.803 639.925C436.158 641.582 435.575 642.994 435.027 644.696C433.817 643.726 432.601 642.761 431.382 641.803Z"/><path fill="#CBCBCC" d="M359.855 688.551C360.428 688.756 360.996 688.94 361.55 689.185C360.05 690.067 355.726 693.377 354.556 694.725L354.127 693.585C355.793 691.957 358.063 690.151 359.855 688.551Z"/><path fill="#1C1A1B" d="M283.466 500.504C284.287 500.733 284.325 500.727 285.047 501.154C287.305 503.476 289.588 505.779 291.795 508.149C301.672 518.76 313.396 527.429 324.856 536.219C324.004 546.212 324.047 550.489 327.846 559.765C318.51 563.333 312.707 564.38 303.038 559.948C284.877 551.625 258.843 530.851 248.819 513.887C261.008 522.993 271.534 524.418 286.361 523.944C285.15 519.748 284.696 517.193 284.427 512.788C284.264 512.136 283.71 507.902 283.634 507.836C283.416 507.878 283.567 507.832 283.119 508.052C283.047 505.997 283.356 502.73 283.466 500.504Z"/><path fill="#CBCBCC" d="M283.466 500.504C284.287 500.733 284.325 500.727 285.047 501.154C284.149 503.495 284.465 509.874 284.427 512.788C284.264 512.136 283.71 507.902 283.634 507.836C283.416 507.878 283.567 507.832 283.119 508.052C283.047 505.997 283.356 502.73 283.466 500.504Z"/><path fill="#1C1A1B" d="M739.916 501.041C741.586 503.841 739.276 519.872 738.714 523.989C754.873 524.595 764.507 522.871 776.9 512.246C765.663 528.25 751.69 541.129 735.534 552.042C733.175 553.5 730.786 554.908 728.369 556.266C715.468 563.42 710.857 564.442 696.672 560.392C700.057 550.365 700.058 546.544 700.285 536.081C708.831 529.659 714.9 525.146 722.732 517.722C727.028 513.65 735.847 503.812 739.916 501.041Z"/><path fill="#1C1A1B" d="M641.805 301.716C645.031 306.723 648.012 312.165 650.539 317.519C653.833 324.497 660.673 345.662 659.888 353.108C660.657 354.581 661.256 354.28 660.597 355.635L660.556 358.005C660.815 364.925 661.605 395.807 657.296 399.974C655.905 401.39 655.303 402.31 654.094 403.832C651.36 398.809 647.657 392.162 643.899 387.899C643.23 387.152 642.668 386.278 642.519 385.276C640.63 372.601 638.348 361.542 634.756 349.223C634.53 348.383 634.489 348.464 634.655 347.643C633.527 345.908 632.552 341.519 631.895 339.352C628.549 328.313 623.194 318.281 617.908 308.081C625.99 309.831 633.171 312.508 640.644 315.976C640.643 311.72 640.531 307.465 640.308 303.216C640.804 302.713 641.303 302.213 641.805 301.716Z"/><path fill="#1C1A1B" d="M634.756 349.223C638.424 350.286 643.566 355.292 646.536 357.821C649.528 360.369 651.501 364.14 653.355 367.543C655.953 364.274 657.748 360.869 659.354 357.018L660.556 358.005C660.815 364.925 661.605 395.807 657.296 399.974C655.905 401.39 655.303 402.31 654.094 403.832C651.36 398.809 647.657 392.162 643.899 387.899C643.23 387.152 642.668 386.278 642.519 385.276C640.63 372.601 638.348 361.542 634.756 349.223Z"/><path fill="#E6E6E6" d="M634.655 347.643C642.682 350.737 649.723 357.876 653.391 365.62L653.718 366.294C655.522 362.766 658.563 355.453 659.888 353.108C660.657 354.581 661.256 354.28 660.597 355.635L660.556 358.005L659.354 357.018C657.748 360.869 655.953 364.274 653.355 367.543C651.501 364.14 649.528 360.369 646.536 357.821C643.566 355.292 638.424 350.286 634.756 349.223C634.53 348.383 634.489 348.464 634.655 347.643Z"/><path fill="#3A3534" d="M659.354 357.018C659.544 356.59 659.798 355.644 660.263 355.375C660.435 355.427 660.327 355.37 660.597 355.635L660.556 358.005L659.354 357.018Z"/><path fill="#1C1A1B" d="M591.859 642.773L592.917 643.193C601.734 645.978 610.783 649.83 619.823 652.743C638.214 658.548 656.951 663.192 675.923 666.648C673.119 676.797 668.946 681.032 661.226 688.069C661.625 689.171 661.428 688.817 662.228 689.761C662.645 689.534 663.061 689.307 663.478 689.081C665.491 690.119 668.209 691.654 669.606 693.516C669.497 694.445 669.378 694.692 669.593 695.507C641.384 689.068 607.303 668.047 585.152 649.718L584.543 648.791C586.921 646.452 589.015 646.113 591.859 642.773Z"/><path fill="#E6E6E6" d="M662.228 689.761C662.645 689.534 663.061 689.307 663.478 689.081C665.491 690.119 668.209 691.654 669.606 693.516C669.497 694.445 669.378 694.692 669.593 695.507C667.873 693.488 665.764 692.384 663.669 690.823C663.19 690.466 662.713 690.108 662.228 689.761Z"/><path fill="#79787A" d="M591.859 642.773L592.917 643.193C590.579 646.045 587.816 647.317 585.152 649.718L584.543 648.791C586.921 646.452 589.015 646.113 591.859 642.773Z"/><path fill="#1C1A1B" d="M697.725 463.865C701.431 471.23 702.914 481.787 703.112 489.898C714.909 492.06 721.094 488.849 730.738 482.962C723.86 495.593 710.342 510.644 699.633 519.723C689.742 527.543 683.685 529.106 671.375 529.098C672.067 520.833 672.244 510.103 669.147 502.266C678.635 492.609 690.83 475.534 697.725 463.865Z"/><path fill="#1C1A1B" d="M369.052 242.57C373.559 224.243 381.788 214.549 397.381 204.409C422.068 188.356 447.601 182.79 476.237 178.823L476.467 179.902C448.937 189.166 424.164 205.171 404.403 226.459C399.032 232.191 393.215 239.497 388.141 245.628C381.097 243.231 376.424 242.615 369.052 242.57Z"/><path fill="#1C1A1B" d="M547.897 178.871C580.715 182.81 615.64 191.704 640.814 214.915C649.267 222.709 652.579 231.54 655.899 242.374C647.354 242.562 644.022 243.175 635.88 245.819C634.143 241.444 628.689 235.881 625.523 232.14C607.688 211.073 588.479 196.884 562.944 185.959C558.189 183.93 553.349 182.106 548.437 180.491L547.897 178.871Z"/><path fill="#1C1A1B" d="M327.42 464.483C335.191 477.709 344.427 490.017 354.952 501.176C352.472 512.679 351.431 517.671 353.947 529.022C342.845 529.153 334.424 527.461 325.731 520.418C312.506 508.81 303.374 497.709 294.274 482.754C295.854 483.742 297.455 484.698 299.074 485.621C302.095 487.313 320.641 494.903 321.421 488.753C322.655 479.025 323.218 473.545 327.42 464.483Z"/><path fill="#1C1A1B" d="M674.624 591.283C686.726 588.332 697.802 584.705 709.373 580.137C710.778 579.583 714.9 577.79 716.012 578.045L717.222 579.139C714.979 581.311 714.75 581.991 714.138 584.997L713.229 584.364C712.577 586.32 712.118 586.59 712.497 588.276C718.036 592.687 730.841 596.96 738.133 597.278C739.895 597.202 752.942 594.871 745.409 598.266C740.866 601.185 731.314 605.581 726.578 607.356C718.377 610.429 685.338 619.827 678.035 618.756C677.567 618.031 665.131 606.782 664.026 605.851C667.312 601.175 671.163 595.827 674.624 591.283Z"/><path fill="#292524" d="M738.133 597.278C739.895 597.202 752.942 594.871 745.409 598.266C742.4 596.884 739.885 598.612 738.133 597.278Z"/><path fill="#CBCBCC" d="M713.229 584.364C713.98 581.588 714.3 580.237 716.012 578.045L717.222 579.139C714.979 581.311 714.75 581.991 714.138 584.997L713.229 584.364Z"/><path fill="#1C1A1B" d="M308.762 578.824L309.328 578.234C316.825 580.918 341.217 589.819 348.094 590.643C352.526 595.445 356.051 601.134 359.647 606.659C357.348 608.714 347.941 616.113 346.626 617.801L345.742 618.504C342.38 619.392 324.942 615.218 320.53 614.321C306.122 611.394 292.307 605.732 279.226 599.143L279.316 597.4C281.897 597.583 284.488 597.595 287.071 597.435C294.129 596.985 305.957 593.948 311.256 588.585C312.147 587.683 311.611 585.828 311.43 584.243C311.093 584.448 310.757 584.655 310.423 584.866C309.946 582.81 309.845 581.897 308.538 580.21L307.991 579.487L308.762 578.824Z"/><path fill="#98999A" d="M308.762 578.824C310.41 581.148 310.799 581.586 311.43 584.243C311.093 584.448 310.757 584.655 310.423 584.866C309.946 582.81 309.845 581.897 308.538 580.21L307.991 579.487L308.762 578.824Z"/><path fill="#1C1A1B" d="M607.956 460.498C611.476 464.373 608.189 466.234 614.174 466.563L614.09 467.141C613.274 471.873 611.458 476.343 609.606 480.769L611.569 480.527C613.693 483.238 614.361 491.279 614.576 494.783C618.443 494.316 620.118 493.972 623.91 493.028C621.23 498.441 607.129 521.474 603.354 524.628C603.258 524.815 602.653 526.053 602.532 526.17C599.571 529.575 590.46 540.491 587.09 541.916L585.838 543.851C581.041 548.66 572.018 558.164 566.258 561.016C560.26 561.013 561.438 562.015 559.879 557.371C562.844 553.667 570.313 544.703 572.559 541.074C580.288 528.587 587.484 514.83 593.766 501.603L594.644 500.352C595.565 496.498 598.659 489.642 600.159 485.699C602.522 479.35 604.453 472.849 605.94 466.24C606.401 464.221 606.435 463.002 607.4 461.158L607.956 460.498Z"/><path fill="#1C1A1B" d="M611.569 480.527C613.693 483.238 614.361 491.279 614.576 494.783C618.443 494.316 620.118 493.972 623.91 493.028C621.23 498.441 607.129 521.474 603.354 524.628C602.834 524.717 598.346 525.395 598.264 524.642C597.727 519.758 597.78 513.462 597.431 508.531C599.955 503.915 609.484 483.203 611.569 480.527Z"/><path fill="#1C1A1B" d="M579.911 542.406C580.434 540.077 582.26 534.635 582.103 532.755C581.362 530.116 585.348 525.049 587.136 522.876C588.697 520.978 593.754 513.19 595.246 512.267C596.5 515.037 596.439 523.403 596.453 526.658C598.756 526.431 600.205 526.05 602.532 526.17C599.571 529.575 590.46 540.491 587.09 541.916C584.467 542.137 582.548 542.311 579.911 542.406Z"/><path fill="#1C1A1B" d="M607.956 460.498C611.476 464.373 608.189 466.234 614.174 466.563L614.09 467.141C613.274 471.873 611.458 476.343 609.606 480.769C605.439 489.353 602.009 497.53 597.394 506.155C596.557 503.136 596.87 502.512 594.644 500.352C595.565 496.498 598.659 489.642 600.159 485.699C602.522 479.35 604.453 472.849 605.94 466.24C606.401 464.221 606.435 463.002 607.4 461.158L607.956 460.498Z"/><path fill="#E6E6E6" d="M607.956 460.498C611.476 464.373 608.189 466.234 614.174 466.563L614.09 467.141C609.694 470.217 611.747 470.49 608.248 462.982L607.4 461.158L607.956 460.498Z"/><path fill="#CBCBCC" d="M597.394 506.155C602.009 497.53 605.439 489.353 609.606 480.769L611.569 480.527C609.484 483.203 599.955 503.915 597.431 508.531C597.78 513.462 597.727 519.758 598.264 524.642C598.346 525.395 602.834 524.717 603.354 524.628C603.258 524.815 602.653 526.053 602.532 526.17C600.205 526.05 598.756 526.431 596.453 526.658C596.439 523.403 596.5 515.037 595.246 512.267C593.754 513.19 588.697 520.978 587.136 522.876C585.348 525.049 581.362 530.116 582.103 532.755C582.26 534.635 580.434 540.077 579.911 542.406C582.548 542.311 584.467 542.137 587.09 541.916L585.838 543.851C583.237 543.944 580.636 544.022 578.035 544.087C578.922 540.367 580.411 535.999 581.571 532.292C579.042 534.516 576.302 537.886 574.039 540.503C577.27 533.21 596.998 512.297 595.066 505.895L593.766 501.603L594.644 500.352C596.87 502.512 596.557 503.136 597.394 506.155Z"/><path fill="#1C1A1B" d="M326.653 535.098C339.193 546.879 358.629 556.498 373.993 564.543C375.076 564.965 375.061 564.919 375.986 565.62C373.711 570.912 381.41 578.84 377.771 581.162L376.443 580.541C362.837 588.333 357.096 585.906 342.915 580.695C331.812 576.615 321.701 571.376 311.121 566.176C306.094 563.82 315.197 565.142 315.868 565.249C321.759 564.711 325.407 563.367 331.018 561.504C327.256 552.848 326.372 544.431 326.653 535.098Z"/><path fill="#CBCBCC" d="M373.993 564.543C375.076 564.965 375.061 564.919 375.986 565.62C373.711 570.912 381.41 578.84 377.771 581.162L376.443 580.541C376.495 580.495 377.318 579.857 377.31 579.771C376.961 575.951 374.451 568.214 373.993 564.543Z"/><path fill="#3A3534" d="M311.121 566.176C306.094 563.82 315.197 565.142 315.868 565.249C314.771 566.045 312.959 565.522 311.121 566.176Z"/><path fill="#1C1A1B" d="M650.335 565.386C655.783 561.371 666.491 556.264 672.62 552.74C683.253 546.626 689.273 542.1 698.41 534.129C698.502 544.652 697.43 551.763 694.088 561.81C698.325 563.136 705.015 565.464 709.244 565.537L710.701 566.93C697.707 574.339 670.435 588.595 655.746 584.256C653.491 583.59 650.322 582.221 648.166 581.167C647.549 580.642 647.178 580.413 646.77 579.73C646.875 579.477 646.98 579.224 647.086 578.972L647.073 579.037C648.301 576.45 651.616 567.972 650.335 565.386Z"/><path fill="#1C1A1B" d="M404.19 687.074C422.738 693.369 433.076 692.292 446.664 677.357C440.614 696.238 423.666 715.035 403.582 718.879C391.768 721.14 377.416 718.574 367.211 712.164L367.349 710.354C377.435 711.305 382.587 710.744 391.622 705.98C394.075 707.574 396.961 708.478 399.727 709.516L400.473 708.532C397.694 705.863 392.34 702.385 389.025 700.083C394.445 695.801 399.364 692.058 404.19 687.074Z"/><path fill="#1C1A1B" d="M580.353 681.677C591.117 692.905 605.543 692.619 619.319 687.558C623.396 692.663 629.561 696.247 635.119 699.646C630.074 703.957 626.787 706.096 621.101 709.53C626.216 708.764 628.133 708.38 632.843 705.916C638.721 710.793 645.527 711.271 652.851 710.604C653.955 710.501 655.057 710.381 656.157 710.246C656.264 710.201 661.753 708.188 659.177 710.272C658.772 710.6 658.35 710.907 657.914 711.192C641.47 723.547 614.728 722.041 599.285 708.96C589.596 700.753 585.134 694.57 579.298 683.505L580.353 681.677Z"/><path fill="#292524" d="M656.157 710.246C656.264 710.201 661.753 708.188 659.177 710.272C658.772 710.6 658.35 710.907 657.914 711.192C657.073 710.561 657.092 710.498 656.157 710.246Z"/><path fill="#1C1A1B" d="M611.215 556.501C616.086 554.285 633.87 537.111 636.264 536.735L637.325 536.193C638.663 540.084 638.471 549.067 638.209 553.195C644.622 553.316 648.288 553.408 654.621 552.227C655.11 552.484 656.036 552.799 656.416 553.123C656.645 553.722 655.306 553.875 655.008 553.958C642.685 561.98 608.497 578.146 594.586 583.412C593.886 583.951 593.58 584.196 592.86 584.651C589.984 583.363 584.488 583.205 582.277 580.627C581.775 580.042 583.699 575.973 583.974 574.324L584.32 574.013C590.333 569.446 603.027 561.78 609.913 557.352C610.488 556.921 610.593 556.84 611.215 556.501Z"/><path fill="#E6E6E6" d="M637.325 536.193C638.663 540.084 638.471 549.067 638.209 553.195C644.622 553.316 648.288 553.408 654.621 552.227C655.11 552.484 656.036 552.799 656.416 553.123C656.645 553.722 655.306 553.875 655.008 553.958C648.709 554.307 642.455 554.032 636.423 554.46C636.547 548.972 637.145 541.874 636.264 536.735L637.325 536.193Z"/><path fill="#CBCBCC" d="M609.913 557.352C610.488 556.921 610.593 556.84 611.215 556.501C610.863 560.814 610.149 564.965 609.197 569.176C610.614 569.732 615.494 571.293 615.978 572.488L616.176 572.243C616.284 572.336 616.224 572.256 616.309 572.577L616.449 572.557C616.113 573.483 608.784 570.362 607.706 569.99C608.971 565.926 609.851 561.619 609.913 557.352Z"/><path fill="#CBCBCC" d="M583.974 574.324L584.32 574.013C585.808 576.597 584.222 577.864 583.058 580.582C588.152 582.6 589.881 582.249 594.586 583.412C593.886 583.951 593.58 584.196 592.86 584.651C589.984 583.363 584.488 583.205 582.277 580.627C581.775 580.042 583.699 575.973 583.974 574.324Z"/><path fill="#1C1A1B" d="M348.094 590.643L348.81 590.474C349.725 590.226 350.029 590.502 350.635 591.187C352.784 592.013 354.997 592.577 357.224 593.152C372.356 597.052 387.733 599.779 403.002 603.072C403.893 603.314 404.12 603.402 404.981 603.756C404.384 605.543 406.783 609.232 407.724 610.859L407.076 611.2C405.437 613.974 397.9 618.987 395.073 620.79C394.778 620.948 394.48 621.101 394.18 621.249C387.167 624.677 371.544 621.718 363.691 621.128C359.945 620.846 350.482 619.874 347.043 618.737L346.626 617.801C347.941 616.113 357.348 608.714 359.647 606.659C356.051 601.134 352.526 595.445 348.094 590.643Z"/><path fill="#E6E6E6" d="M348.094 590.643L348.81 590.474C349.725 590.226 350.029 590.502 350.635 591.187C351.081 592.779 360.022 605.67 361.44 607.58C356.793 611.406 351.103 615.362 347.043 618.737L346.626 617.801C347.941 616.113 357.348 608.714 359.647 606.659C356.051 601.134 352.526 595.445 348.094 590.643Z"/><path fill="#79787A" d="M403.002 603.072C403.893 603.314 404.12 603.402 404.981 603.756C404.384 605.543 406.783 609.232 407.724 610.859L407.076 611.2C405.358 609.221 403.917 605.507 403.002 603.072Z"/><path fill="#1C1A1B" d="M672.488 591.606C673.465 591.228 673.521 591.289 674.624 591.283C671.163 595.827 667.312 601.175 664.026 605.851C665.131 606.782 677.567 618.031 678.035 618.756C677.696 618.944 677.356 619.132 677.017 619.32C675.09 619.636 673.155 619.9 671.213 620.114C660.159 621.371 640.799 623.869 629.865 621.05C627.115 620.341 622.06 616.1 619.704 614.223C618.846 613.084 616.944 612.523 618.021 611.261C619.811 609.161 620.506 605.878 621.086 603.232C623.011 602.191 643.398 599 647.369 598.018C655.397 596.032 664.388 593.716 672.488 591.606Z"/><path fill="#E6E6E6" d="M672.488 591.606C673.465 591.228 673.521 591.289 674.624 591.283C671.163 595.827 667.312 601.175 664.026 605.851C665.131 606.782 677.567 618.031 678.035 618.756C677.696 618.944 677.356 619.132 677.017 619.32C674.244 617.309 664.984 608.803 662.473 606.177C664.76 602.857 671.927 594.412 672.488 591.606Z"/><path fill="#1C1A1B" d="M385.009 312.09C385.796 303.596 387.14 294.461 392.181 287.388C409.038 263.737 434.619 249.442 462.383 243.69L462.51 244.958C458.888 246.427 455.315 248.013 451.796 249.713C428.285 261.156 414.908 281.373 406.746 305.406C398.155 308.012 394.329 308.209 385.009 312.09Z"/><path fill="#1C1A1B" d="M356.854 503.531C366.797 514.326 375.563 526.304 387.525 535.778C386.394 540.755 386.17 547.36 385.776 552.533C380.497 553.216 377.514 552.798 372.875 553.203C362.37 551.925 342.146 534.963 333.07 528.03C342.452 530.791 346.5 531.086 356.036 529.515C353.732 518.441 354.382 514.79 356.854 503.531Z"/><path fill="#1C1A1B" d="M637.325 536.193C638.828 532.765 659.871 515.242 662.838 509.792C663.294 508.952 667.358 504.513 668.198 504.264C671.24 507.324 669.594 525.776 668.873 530.137C677.954 530.906 681.034 530.759 689.952 528.71C680.3 537.33 666.516 547.614 654.621 552.227C648.288 553.408 644.622 553.316 638.209 553.195C638.471 549.067 638.663 540.084 637.325 536.193Z"/><path fill="#1C1A1B" d="M559.919 243.731C586.742 248.153 614.216 263.323 630.26 285.509C635.882 293.179 638.978 302.408 639.12 311.916C633.187 309.843 623.043 307.218 618.241 305.252C607.873 279.414 595.447 259.856 568.635 248.15C566.489 247.213 561.525 245.214 559.276 244.728L559.919 243.731Z"/><path fill="#1C1A1B" d="M361.9 483.435C363.576 474.882 366.175 463.658 371.545 456.598C375.007 465.177 386.576 488.121 392.651 494.715C388.608 500.353 387.837 507.757 387.848 514.505C387.853 517.698 386.218 516.446 383.089 516.156C372.881 513.705 357.178 490.791 351.213 481.382C355.494 482.783 357.445 482.933 361.9 483.435Z"/><path fill="#1C1A1B" d="M653.523 455.839C658.15 464.642 660.156 473.537 662.007 483.157C665.901 482.936 668.47 482.606 672.264 481.894C666.669 492.688 657.374 503.55 648.623 511.894C644.242 516.05 642.294 515.884 636.314 517.03C637.033 507.483 636.12 502.314 632.871 493.317C641.008 480.199 646.633 469.83 653.523 455.839Z"/><path fill="#1C1A1B" d="M350.014 627.329C351.125 627.109 351.109 627.044 352.128 627.381C366.819 628.218 380.599 628.904 395.261 627.527C396.339 627.426 397.357 628.795 398.018 629.56C399.862 631.801 402.613 634.23 404.821 636.224C401.943 640.331 399.484 643.133 396.435 646.986C395.834 647.688 394.666 648.995 393.824 649.271C379.685 653.914 360.447 654.838 345.98 656.12C350.024 652.863 352.239 650.525 355.826 646.826L354.93 645.955C357.152 643.505 359.212 641.063 361.354 638.546C358.083 636.326 357.768 636.113 355.279 633.114C355.01 632.879 355.007 632.882 354.816 632.582C353.181 630.863 351.634 629.077 350.014 627.329Z"/><path fill="#CBCBCC" d="M350.014 627.329C351.125 627.109 351.109 627.044 352.128 627.381C352.69 629.916 360.459 636.673 362.981 638.517C360.839 641.032 358.092 644.538 355.826 646.826L354.93 645.955C357.152 643.505 359.212 641.063 361.354 638.546C358.083 636.326 357.768 636.113 355.279 633.114C355.01 632.879 355.007 632.882 354.816 632.582C353.181 630.863 351.634 629.077 350.014 627.329Z"/><path fill="#1C1A1B" d="M665.628 627.863C667.005 626.807 671.806 627.359 673.549 627.772C669.792 631.088 666.191 634.404 662.58 637.883C668.276 645.314 672.065 649.158 679.8 654.343L678.942 655.74C677.326 655.973 676.643 655.885 675.013 655.749C663.09 654.985 642.928 652.811 631.523 649.404C630.791 649.223 629.994 649.071 629.317 648.758C629.006 647.783 628.761 647.474 627.977 646.777L627.304 646.147L627.672 645.251C625.04 642.388 621.867 639.386 619.087 636.6C621.955 633.792 624.933 630.93 627.76 628.091C628.537 627.688 628.914 627.48 629.847 627.55C641.971 628.457 653.475 628.427 665.628 627.863Z"/><path fill="#CBCBCC" d="M665.628 627.863C667.005 626.807 671.806 627.359 673.549 627.772C669.792 631.088 666.191 634.404 662.58 637.883C668.276 645.314 672.065 649.158 679.8 654.343L678.942 655.74C677.326 655.973 676.643 655.885 675.013 655.749L676.552 654.116C671.093 650.323 665.204 643.206 661.074 637.914L661.528 637.478C664.827 634.268 668.636 630.935 672.042 627.829C670.016 627.866 667.606 627.968 665.628 627.863Z"/><path fill="#292524" d="M676.552 654.116C677.657 654.719 677.959 654.969 678.942 655.74C677.326 655.973 676.643 655.885 675.013 655.749L676.552 654.116Z"/><path fill="#CBCBCC" d="M627.672 645.251C629.042 646.717 630.253 647.833 631.523 649.404C630.791 649.223 629.994 649.071 629.317 648.758C629.006 647.783 628.761 647.474 627.977 646.777L627.304 646.147L627.672 645.251Z"/><path fill="#1C1A1B" d="M270.958 346.379C268.806 339.968 266.862 334.87 266.869 327.976C266.898 301.349 289.326 274.441 306.809 256.313L307.675 257.183C291.801 282.587 285.481 303.405 283.393 333.231C278.495 337.42 274.628 341.104 270.958 346.379Z"/><path fill="#1C1A1B" d="M714.436 252.786C733.022 272.655 757.638 299.258 757.629 328.693C757.628 333.955 755.206 340.116 753.565 345.28C749.163 340.336 746.302 337.484 741.164 333.318C739.764 306.006 731.111 275.178 713.849 253.659L714.436 252.786Z"/><path fill="#1C1A1B" d="M230.768 371.145L231.765 373.409C228.186 399.375 230.063 413.267 240.503 436.67C236.941 444.089 236.17 449.249 234.73 457.211C228.545 453.742 223.56 449.547 221.326 442.533C214.196 420.143 221.428 391.498 230.768 371.145Z"/><path fill="#1C1A1B" d="M794.146 371.833C794.333 372.512 794.47 372.988 794.697 373.647C803.062 392.835 810.485 422.852 802.772 443.027C800.026 450.211 796.47 452.616 790.475 456.506C788.609 448.976 787.299 443.968 784.387 436.681C793.087 415.986 796.872 398.594 793.759 375.826L793.279 373.278L794.146 371.833Z"/><path fill="#292524" d="M794.146 371.833C794.333 372.512 794.47 372.988 794.697 373.647L793.759 375.826L793.279 373.278L794.146 371.833Z"/><path fill="#1C1A1B" d="M403.383 391.019C401.498 400.228 399.966 408.101 399.079 417.49C398.655 421.98 399.499 433.259 398.555 436.148C394.381 439.838 390.907 446.935 388.344 451.732C385.142 448.808 383.712 448.008 382.675 443.929C379.355 427.034 378.726 408.575 384.875 392.254C386.007 397.648 386.943 400.631 388.631 405.848C392.868 400.618 398.452 395.664 403.383 391.019Z"/><path fill="#1C1A1B" d="M398.555 436.148C398.688 436.854 398.906 436.933 399.471 437.545C400.744 439.069 400.83 442.248 401.25 444.412C403.457 455.769 406.565 466.249 410.901 476.962C407.189 482.912 407.468 487.263 407.234 494.14C404.258 492.894 401.289 491.632 398.326 490.355C393.556 481.696 386.934 468.575 384.88 459.104C384.437 458.9 384.36 459.015 384.31 458.602C384.77 456.667 382.136 447.048 381.597 444L382.675 443.929C383.712 448.008 385.142 448.808 388.344 451.732C390.907 446.935 394.381 439.838 398.555 436.148Z"/><path fill="#E6E6E6" d="M398.555 436.148C398.688 436.854 398.906 436.933 399.471 437.545C394.243 443.506 392.021 446.78 388.859 454.028C387.13 452.41 385.647 450.997 383.833 449.452L384.744 454.316C385 455.627 385.417 457.906 384.88 459.104C384.437 458.9 384.36 459.015 384.31 458.602C384.77 456.667 382.136 447.048 381.597 444L382.675 443.929C383.712 448.008 385.142 448.808 388.344 451.732C390.907 446.935 394.381 439.838 398.555 436.148Z"/><path fill="#1C1A1B" d="M410.815 468.095C415.493 467.498 412.664 464.634 415.757 461.673L416.813 462.078C417.818 463.225 418.281 466.212 418.598 467.739C420.937 478.989 425.312 488.9 429.303 499.525C428.165 501.292 427.392 503.243 426.214 504.839L425.35 505.637C428.232 508.424 427.806 506.481 426.552 511.517C425.422 516.057 425.489 520.546 425.508 525.176C423.118 524.712 422.204 524.498 419.703 524.233C413.796 517.376 403.738 501.686 399.589 493.411C403.167 494.218 405.327 494.731 408.623 496.281C409.301 492.983 411.104 482.784 412.594 480.2L414.341 479.865C413.733 478.206 410.871 470.11 410.315 469.284C410.424 468.994 410.632 468.362 410.815 468.095Z"/><path fill="#1C1A1B" d="M410.815 468.095C415.493 467.498 412.664 464.634 415.757 461.673L416.813 462.078C417.818 463.225 418.281 466.212 418.598 467.739C420.937 478.989 425.312 488.9 429.303 499.525C428.165 501.292 427.392 503.243 426.214 504.839C422.755 500.32 417.402 485.575 414.341 479.865C413.733 478.206 410.871 470.11 410.315 469.284C410.424 468.994 410.632 468.362 410.815 468.095Z"/><path fill="#E6E6E6" d="M410.815 468.095C415.493 467.498 412.664 464.634 415.757 461.673L416.813 462.078C414.485 465.894 415.254 469.232 410.315 469.284C410.424 468.994 410.632 468.362 410.815 468.095Z"/><path fill="#CBCBCC" d="M414.341 479.865C417.402 485.575 422.755 500.32 426.214 504.839L425.35 505.637C424.362 502.462 414.667 483.505 412.594 480.2L414.341 479.865Z"/><path fill="#1C1A1B" d="M626.054 436.939C629.846 438.351 633.705 447.973 636.373 450.88L636.758 451.752L638.859 450.012C639.756 449.56 639.729 449.544 640.66 449.344C640.59 450.327 640.501 451.308 640.394 452.287L640.814 455.692C640.402 457.01 640.119 458.498 639.215 459.416L638.158 459.882C636.695 467.071 631.039 480.48 627.229 486.986C624.362 491.882 621.34 492.198 616.183 493.382C616.498 485.741 616.146 483.818 613.207 476.664C613.927 472.094 616.685 465.907 618.182 461.181C620.601 453.424 622.636 445.551 624.277 437.592C624.926 437.691 625.25 437.793 625.708 437.291L626.054 436.939Z"/><path fill="#E6E6E6" d="M626.054 436.939C629.846 438.351 633.705 447.973 636.373 450.88L636.758 451.752C636.369 452.143 635.932 452.828 635.313 452.849C635.58 453.067 632.246 446.996 632.12 446.752C630.071 442.798 626.885 440.798 624.277 437.592C624.926 437.691 625.25 437.793 625.708 437.291L626.054 436.939Z"/><path fill="#E6E6E6" d="M638.859 450.012C639.756 449.56 639.729 449.544 640.66 449.344C640.59 450.327 640.501 451.308 640.394 452.287L640.814 455.692C640.402 457.01 640.119 458.498 639.215 459.416L638.158 459.882C638.823 456.807 639.143 453.14 638.859 450.012Z"/><path fill="#3A3534" d="M639.215 459.416C639.254 457.881 640.065 454.128 640.394 452.287L640.814 455.692C640.402 457.01 640.119 458.498 639.215 459.416Z"/><path fill="#1C1A1B" d="M634.63 405.659C637.369 400.751 637.802 396.245 639.355 390.998C642.731 407.607 646.931 429.989 639.088 447.133C638.738 447.897 636.967 449.85 636.373 450.88C633.705 447.973 629.846 438.351 626.054 436.939C624.566 434.925 624.936 431.512 625.052 428.824C625.626 415.611 624.024 404.215 621.303 391.322C626.065 396.047 630.986 400.103 634.63 405.659Z"/><path fill="#1C1A1B" d="M392.651 494.715C392.934 495.223 393.06 495.51 393.293 496.047C397.019 504.031 409.872 519.129 415.552 526.463C414.592 534.219 414.721 536.318 417.187 543.936C415.763 543.942 410.028 544.026 408.998 543.358C398.965 536.848 388.14 526.813 380.659 517.624C380.848 516.367 381.651 516.794 383.089 516.156C386.218 516.446 387.853 517.698 387.848 514.505C387.837 507.757 388.608 500.353 392.651 494.715Z"/><path fill="#E6E6E6" d="M392.651 494.715C392.934 495.223 393.06 495.51 393.293 496.047C389.475 502.43 389.642 511.14 389.386 518.382L388.534 518.284C386.164 517.972 383.079 517.779 380.659 517.624C380.848 516.367 381.651 516.794 383.089 516.156C386.218 516.446 387.853 517.698 387.848 514.505C387.837 507.757 388.608 500.353 392.651 494.715Z"/><path fill="#1C1A1B" d="M400.232 347.037L401.753 348.101C400.914 351.49 400.301 356.747 399.777 360.328C408.097 354.655 410.345 355.774 418.944 351.79C410.76 366.426 408.062 373.164 403.724 389.198C399.403 391.843 393.071 398.279 389.277 402.026C383.749 387.179 388.083 376.998 392.934 362.545C394.738 357.169 397.205 351.83 400.232 347.037Z"/><path fill="#1C1A1B" d="M608.966 527.222C608.956 526.9 608.847 525.607 609.116 525.299C615.785 517.667 622.285 509.582 628.054 501.252C629.513 499.145 630.72 496.965 632.168 494.882C635.091 504.154 635.159 508.795 634.44 518.348C638.993 518.482 638.757 518.346 643.033 517.951C638.399 524.516 621.759 541.351 614.368 543.613C614.136 543.639 613.903 543.658 613.671 543.69C612.145 543.902 608.866 544.579 607.515 543.81C606.545 543.258 610.135 530.888 609.253 528.099L608.966 527.222Z"/><path fill="#1C1A1B" d="M430.056 510.989C428.012 507.289 429.352 505.292 429.773 500.922L447.055 533.621C447.564 534.388 447.922 535.002 448.383 535.801C449.805 536.802 450.036 537.849 449.91 539.445C454.022 545.315 460.119 551.454 463.849 557.724C464.658 558.357 465.1 558.674 465.795 559.422C465.543 560.066 465.337 560.686 465.113 561.338C464.191 562.031 464.296 561.987 463.127 561.921C461.567 562.089 460.031 562.208 458.474 562.363C457.762 561.877 457.482 561.649 456.803 561.089C449.113 553.767 446.111 553.783 437.904 543.465L437.479 541.9C434.567 540.647 421.325 527.606 422.539 526.144C424.016 525.597 426.685 527.467 426.844 525.503C427.083 522.564 427.211 513.64 429.2 511.478L430.056 510.989Z"/><path fill="#1C1A1B" d="M443.217 532.179C445.372 534.521 447.623 537.48 449.91 539.445C454.022 545.315 460.119 551.454 463.849 557.724C464.658 558.357 465.1 558.674 465.795 559.422C465.543 560.066 465.337 560.686 465.113 561.338C464.191 562.031 464.296 561.987 463.127 561.921C461.567 562.089 460.031 562.208 458.474 562.363C457.762 561.877 457.482 561.649 456.803 561.089C449.113 553.767 446.111 553.783 437.904 543.465C440.842 543.683 443.561 544.092 446.407 544.805C445.455 541.946 444.737 540.222 444.107 537.249L443.217 532.179Z"/><path fill="#CBCBCC" d="M457.725 560.548C460.728 559.973 460.74 560.404 463.874 560.526L465.113 561.338C464.191 562.031 464.296 561.987 463.127 561.921C461.567 562.089 460.031 562.208 458.474 562.363C457.762 561.877 457.482 561.649 456.803 561.089L457.725 560.548Z"/><path fill="#3A3534" d="M456.803 561.089L457.725 560.548C459.987 562.051 460.305 561.507 463.127 561.921C461.567 562.089 460.031 562.208 458.474 562.363C457.762 561.877 457.482 561.649 456.803 561.089Z"/><path fill="#3A3534" d="M463.849 557.724C464.658 558.357 465.1 558.674 465.795 559.422C465.543 560.066 465.337 560.686 465.113 561.338L463.874 560.526C463.859 559.592 463.851 558.658 463.849 557.724Z"/><path fill="#1C1A1B" d="M430.056 510.989C428.012 507.289 429.352 505.292 429.773 500.922L447.055 533.621L445.835 533.666C444.191 531.07 442.299 529.32 440.616 526.979C436.943 521.873 433.628 516.121 430.056 510.989Z"/><path fill="#CBCBCC" d="M430.056 510.989C433.628 516.121 436.943 521.873 440.616 526.979C442.299 529.32 444.191 531.07 445.835 533.666L447.055 533.621C447.564 534.388 447.922 535.002 448.383 535.801C449.805 536.802 450.036 537.849 449.91 539.445C447.623 537.48 445.372 534.521 443.217 532.179L444.107 537.249C444.737 540.222 445.455 541.946 446.407 544.805C443.561 544.092 440.842 543.683 437.904 543.465L437.479 541.9C439.836 542.376 442.006 542.653 444.389 542.946C443.711 540.347 442.626 537.434 442.324 534.767C441.57 528.122 433.358 516.778 429.2 511.478L430.056 510.989Z"/><path fill="#3A3534" d="M445.835 533.666L447.055 533.621C447.564 534.388 447.922 535.002 448.383 535.801C446.832 535.377 446.797 535.146 445.835 533.666Z"/><path fill="#1C1A1B" d="M622.754 349.906C622.602 349.273 622.172 347.327 622.809 346.826C623.574 346.846 623.915 347.679 624.194 348.328C630.665 358.284 640.274 384.338 636.492 396.445C635.794 398.679 635.361 400.701 634.598 403.002C630.419 396.679 626.569 393.87 620.788 388.949C616.45 371.702 614.118 367.432 605.524 352.14C613.014 355.751 616.004 354.418 623.384 359.849C623.188 356.685 623.054 353.018 622.754 349.906Z"/><path fill="#3A3534" d="M622.754 349.906C622.602 349.273 622.172 347.327 622.809 346.826C623.574 346.846 623.915 347.679 624.194 348.328L622.754 349.906Z"/><path fill="#1C1A1B" d="M677.634 672.255C694.608 683.384 710.709 682.696 729.237 676.389C716.145 689.216 699.567 695.763 681.051 696.501C676.787 696.671 673.263 695.659 669.606 693.516C668.209 691.654 665.491 690.119 663.478 689.081C670.11 685.778 675.191 679.161 677.634 672.255Z"/><path fill="#1C1A1B" d="M294.88 676.266C296.246 676.763 297.617 677.244 298.994 677.709C317.344 683.877 330.057 680.922 346.445 672.843C349.403 679.946 353.06 684.726 359.855 688.551C358.063 690.151 355.793 691.957 354.127 693.585C351.509 695.65 347.808 696.571 344.544 696.497C324.032 696.029 309.468 689.801 294.88 676.266Z"/><path fill="#1C1A1B" d="M387.525 535.778C388.159 536.283 388.247 536.434 388.763 537.068C392.824 541.56 408.256 553.884 413.729 556.713L414.129 557.204C413.921 561.289 414.286 565.382 416.322 569.066C415.813 568.918 415.458 568.775 414.946 568.74C413.212 569.699 408.946 571.361 408.156 572.455C407.758 572.547 406.199 573.009 405.769 572.824C394.166 567.823 383.014 561.674 371.717 555.987C371.351 555.82 368.819 554.82 368.864 554.288C368.955 554.225 369.047 554.162 369.138 554.099C370.676 553.855 371.478 553.898 372.875 553.203C377.514 552.798 380.497 553.216 385.776 552.533C386.17 547.36 386.394 540.755 387.525 535.778Z"/><path fill="#E6E6E6" d="M387.525 535.778C388.159 536.283 388.247 536.434 388.763 537.068C387.845 543.407 387.517 547.997 387.542 554.356C382.408 554.292 377.013 554.321 371.882 554.585L371.717 555.987C371.351 555.82 368.819 554.82 368.864 554.288C368.955 554.225 369.047 554.162 369.138 554.099C370.676 553.855 371.478 553.898 372.875 553.203C377.514 552.798 380.497 553.216 385.776 552.533C386.17 547.36 386.394 540.755 387.525 535.778Z"/><path fill="#3A3534" d="M369.138 554.099C370.153 554.313 370.841 554.442 371.882 554.585L371.717 555.987C371.351 555.82 368.819 554.82 368.864 554.288C368.955 554.225 369.047 554.162 369.138 554.099Z"/><path fill="#98999A" d="M413.729 556.713L414.129 557.204C413.921 561.289 414.286 565.382 416.322 569.066C415.813 568.918 415.458 568.775 414.946 568.74C413.945 565.106 412.112 560.128 413.729 556.713Z"/><path fill="#1C1A1B" d="M649.973 565.408L650.335 565.386C651.616 567.972 648.301 576.45 647.073 579.037L647.086 578.972C646.98 579.224 646.875 579.477 646.77 579.73C647.178 580.413 647.549 580.642 648.166 581.167L647.394 582.1C650.547 583.34 655.877 586.231 659.725 587.857C656.952 589.05 655.196 589.427 652.303 590.2L651.494 590.423C645.601 592.013 639.685 593.518 633.749 594.937C632.334 595.265 630.914 595.572 629.491 595.86C628.609 596.007 627.779 596.136 626.947 596.467C625.812 596.833 625.844 596.852 624.663 596.867C622.527 595.459 619.882 594.284 617.537 592.984C606.535 587.614 617.397 586.823 615.577 581.688C616.398 581.395 616.448 581.482 617.398 581.629C617.853 581.014 647.137 566.681 649.973 565.408Z"/><path fill="#CBCBCC" d="M649.973 565.408L650.335 565.386C651.616 567.972 648.301 576.45 647.073 579.037L647.086 578.972C646.98 579.224 646.875 579.477 646.77 579.73C647.178 580.413 647.549 580.642 648.166 581.167L647.394 582.1C642.879 578.557 648.063 577.311 648.774 571.784C648.997 570.054 649.658 567.357 649.973 565.408Z"/><path fill="#98999A" d="M615.577 581.688C616.398 581.395 616.448 581.482 617.398 581.629C616.178 584.368 614.74 586.866 613.289 589.487C614.917 590.37 617.307 591.481 618.729 592.322L617.537 592.984C606.535 587.614 617.397 586.823 615.577 581.688Z"/><path fill="#E6E6E6" d="M618.729 592.322C621.842 594.291 624.642 593.809 626.947 596.467C625.812 596.833 625.844 596.852 624.663 596.867C622.527 595.459 619.882 594.284 617.537 592.984L618.729 592.322Z"/><path fill="#1C1A1B" d="M466.061 300.048L465.988 301.036C451.459 306.538 432.591 323.046 424.589 336.307C421.451 341.508 419.207 346.344 416.36 351.669C410.7 353.162 407.638 354.134 402.089 356.253C402.641 350.146 403.576 342.682 406.929 337.453C419.008 318.61 445.344 305.552 466.061 300.048Z"/><path fill="#1C1A1B" d="M453.087 660.115C453.253 660.128 453.419 660.141 453.585 660.153C453.624 660.219 453.663 660.285 453.703 660.35C450.209 671.872 440.372 683.883 428.001 685.971C420.526 687.233 413.901 686.391 407.06 684.718L406.612 684.611C405.984 684.305 405.303 684.087 404.699 683.737C405.145 682.804 427.516 662.938 429.933 661.033C440.663 662.578 442.333 662.54 453.087 660.115Z"/><path fill="#1C1A1B" d="M558.701 300.74C579.194 306.318 599.377 316.39 613.764 332.668C620.044 339.774 621.102 346.293 621.04 355.496C615.474 353.372 612.534 352.919 607.042 351.366C598.037 328.788 580.171 311.874 558.336 301.636L558.701 300.74Z"/><path fill="#1C1A1B" d="M591.014 661.016C590.58 661.011 592.722 661.054 592.616 661.031C596.049 661.763 601.675 668.642 604.288 670.909C609.797 675.69 615.3 679.669 620.649 684.263C620.219 684.313 617.976 684.438 617.751 684.493C593.445 690.434 581.356 685.461 570.124 661.458C575.677 662.457 581.888 663.059 587.467 661.971L588.38 661.801C589.709 661.609 589.978 661.692 591.014 661.016Z"/><path fill="#1C1A1B" d="M377.771 581.162C381.41 578.84 373.711 570.912 375.986 565.62C388.341 573.6 395.483 575.247 407.016 581.524C407.281 581.609 407.546 581.693 407.811 581.777L407.987 582.251C411.981 592.772 410.957 591.52 399.622 597.173C399.037 596.835 398.945 596.811 398.464 596.343C397.308 596.38 396.891 596.413 395.746 596.141C392.486 595.357 389.236 594.538 385.994 593.682L381.741 592.604C380.474 592.296 379.242 591.955 377.991 591.649L375.993 591.157L373.992 590.655C370.661 589.829 367.741 589.203 364.365 588.631C369.06 586.315 373.471 583.252 377.771 581.162Z"/><path fill="#CBCBCC" d="M407.016 581.524C407.281 581.609 407.546 581.693 407.811 581.777L407.987 582.251C411.981 592.772 410.957 591.52 399.622 597.173C399.037 596.835 398.945 596.811 398.464 596.343C400.376 594.452 406.012 592.58 409.012 590.475L409.84 589.912C409.155 587.113 407.319 583.126 407.016 581.524Z"/><path fill="#1C1A1B" d="M407.811 581.777C426.627 589.32 444.889 596.091 464.521 601.24C468.252 602.219 471.906 603.279 475.483 604.736C467.409 605.177 439.811 605.994 433.074 603.313L431.956 602.522C428.2 604.144 404.734 598.358 399.622 597.173C410.957 591.52 411.981 592.772 407.987 582.251L407.811 581.777Z"/><path fill="#E6E6E6" d="M431.956 602.522C433.976 600.833 436.086 599.483 437.25 597.003C438.329 594.705 439.657 594.912 438.192 597.69C436.337 601.207 436.248 601.247 433.074 603.313L431.956 602.522Z"/><path fill="#1C1A1B" d="M615.577 581.688C617.397 586.823 606.535 587.614 617.537 592.984C619.882 594.284 622.527 595.459 624.663 596.867C613.806 599.302 605.058 601.028 594.06 602.835C592.328 603.325 592.397 602.239 591.007 603.319C578.116 604.628 563.387 605.713 550.529 603.886C561.312 600.339 572.618 597.38 583.413 593.753C594.244 590.113 604.932 585.85 615.577 581.688Z"/><path fill="#CBCBCC" d="M591.007 603.319C589.585 602.445 587.797 601.167 586.336 600.404C585.351 599.889 582.678 596.446 584.759 596.592C585.144 596.98 585.448 597.785 585.772 598.244C587.368 600.501 591.567 602.249 594.06 602.835C592.328 603.325 592.397 602.239 591.007 603.319Z"/><path fill="#1C1A1B" d="M212.914 488.082C213.402 489.403 214.174 491.732 214.346 493.103C221.974 514.201 230.735 525.398 247.191 540.667C246.854 543.779 246.431 546.989 246.346 550.107C236.769 548.135 229.086 546.092 223.356 537.075C217.289 527.529 213.695 510.031 213.376 498.864C212.9 497.836 212.52 489.667 212.452 488.143L212.914 488.082Z"/><path fill="#3A3534" d="M212.914 488.082C213.402 489.403 214.174 491.732 214.346 493.103L213.884 493.813C212.676 495.614 213.967 496.559 213.376 498.864C212.9 497.836 212.52 489.667 212.452 488.143L212.914 488.082Z"/><path fill="#1C1A1B" d="M810.281 491.074C811.017 492.352 810.97 492.317 811.26 493.733C809.956 510.661 806.808 539.805 788.416 547.627C785.067 549.052 781.002 549.447 777.384 549.897C777.598 545.524 777.529 544.356 776.855 540.114C790.703 530.829 806.053 507.399 810.281 491.074Z"/><path fill="#1C1A1B" d="M608.023 527.145L608.966 527.222L609.253 528.099C610.135 530.888 606.545 543.258 607.515 543.81C608.866 544.579 612.145 543.902 613.671 543.69C613.903 543.658 614.136 543.639 614.368 543.613C614.295 544.345 614.229 545.078 614.17 545.812C612.232 547.512 609.769 549.03 607.6 550.781C598.711 557.958 591.617 565.053 580.499 568.566C580.324 569.425 580.361 569.556 579.985 570.257C578.221 569.459 573.294 568.833 572.474 568.312C571.413 567.637 572.731 564.132 572.837 562.647C573.576 562.04 573.53 562.028 574.355 561.682C577.506 560.516 596.284 540.988 599.607 537.084C601.408 534.967 606.06 528.763 608.023 527.145Z"/><path fill="#E6E6E6" d="M608.023 527.145L608.966 527.222L609.253 528.099C610.135 530.888 606.545 543.258 607.515 543.81C608.866 544.579 612.145 543.902 613.671 543.69C613.903 543.658 614.136 543.639 614.368 543.613C614.295 544.345 614.229 545.078 614.17 545.812C596.906 547.476 611.012 538.976 608.023 527.145Z"/><path fill="#CBCBCC" d="M572.837 562.647C573.576 562.04 573.53 562.028 574.355 561.682C573.832 563.736 573.143 565.363 572.541 567.356C574.863 567.697 578.296 568.35 580.499 568.566C580.324 569.425 580.361 569.556 579.985 570.257C578.221 569.459 573.294 568.833 572.474 568.312C571.413 567.637 572.731 564.132 572.837 562.647Z"/><path fill="#1C1A1B" d="M416.279 527.935C425.723 538.308 434.536 548.838 445.188 558.155C446.445 559.254 448.04 561.209 449.168 562.076C449.886 561.979 449.788 561.969 450.464 562.254C452.131 563.687 453.517 564.906 455.082 566.449L454.459 566.839C452.098 569.105 446.618 570.11 443.439 570.733C442.576 569.813 441.934 569.297 443.436 568.733C435.982 567.132 427.041 559.311 420.996 554.476C417.262 551.478 413.634 548.35 410.12 545.098C413.629 545.334 415.47 545.256 418.969 545.103C416.313 536.651 416.133 537.054 416.279 527.935Z"/><path fill="#CBCBCC" d="M449.168 562.076C449.886 561.979 449.788 561.969 450.464 562.254C452.131 563.687 453.517 564.906 455.082 566.449L454.459 566.839C452.098 569.105 446.618 570.11 443.439 570.733C442.576 569.813 441.934 569.297 443.436 568.733C447.509 568.782 447.854 568.541 451.796 567.556C450.898 565.767 450.042 563.889 449.168 562.076Z"/><path fill="#292524" d="M450.464 562.254C452.131 563.687 453.517 564.906 455.082 566.449L454.459 566.839C451.755 566.204 450.906 565.28 450.464 562.254Z"/><path fill="#1C1A1B" d="M586.978 625.068C588.964 625.068 590.555 625.22 592.511 625.456C599.345 625.774 621.114 626.805 626.866 627.859L627.76 628.091C624.933 630.93 621.955 633.792 619.087 636.6C621.867 639.386 625.04 642.388 627.672 645.251L627.304 646.147L627.977 646.777C628.761 647.474 629.006 647.783 629.317 648.758C621.521 646.589 613.71 644.317 605.919 642.17C603.04 641.377 597.878 639.268 595.712 638.779C594.902 638.605 594.162 638.448 593.356 638.241C593.769 637.72 593.72 637.653 593.225 636.933C589.411 631.38 586.893 631.607 586.978 625.068Z"/><path fill="#79787A" d="M626.866 627.859L627.76 628.091C624.933 630.93 621.955 633.792 619.087 636.6C621.867 639.386 625.04 642.388 627.672 645.251L627.304 646.147C624.404 643.968 620.603 639.104 617.446 636.652C620.171 634.063 624.044 630.29 626.866 627.859Z"/><path fill="#98999A" d="M586.978 625.068C588.964 625.068 590.555 625.22 592.511 625.456C590.021 625.591 586.969 624.762 587.953 627.774C588.994 630.956 593.589 635.969 595.712 638.779C594.902 638.605 594.162 638.448 593.356 638.241C593.769 637.72 593.72 637.653 593.225 636.933C589.411 631.38 586.893 631.607 586.978 625.068Z"/><path fill="#1C1A1B" d="M436.411 625.107L437.263 625.215C437.225 633.292 433.511 632.155 432.49 637.248C431.516 637.74 431.604 637.725 430.59 637.98C429.38 638.07 424.366 640.148 422.89 640.599C419.288 641.698 399.858 648.568 397.307 647.651L396.435 646.986C399.484 643.133 401.943 640.331 404.821 636.224C402.613 634.23 399.862 631.801 398.018 629.56L398.492 628.673C398.201 627.866 398.049 627.442 399.204 627.386C403.884 627.157 408.573 626.85 413.25 626.573C416.377 626.388 419.615 626.591 422.75 626.365C427.171 625.931 432.066 625.892 436.411 625.107Z"/><path fill="#98999A" d="M398.492 628.673C401.752 631.992 402.759 632.763 406.209 635.725C403.131 640.228 400.636 643.364 397.307 647.651L396.435 646.986C399.484 643.133 401.943 640.331 404.821 636.224C402.613 634.23 399.862 631.801 398.018 629.56L398.492 628.673Z"/><path fill="#CBCBCC" d="M436.411 625.107L437.263 625.215C437.225 633.292 433.511 632.155 432.49 637.248C431.516 637.74 431.604 637.725 430.59 637.98C431.475 636.41 432.408 634.868 433.389 633.356C436.31 628.863 435.375 630.021 436.411 625.107Z"/><path fill="#1C1A1B" d="M404.981 603.756C409.864 604.891 414.789 605.832 419.746 606.579C425.249 607.408 435.926 608.044 440.112 610.486C439.106 614.075 438.754 614.22 436.466 617.037C430.912 621.829 425.69 621.29 418.735 621.78C411.351 622.3 403.89 622.234 396.489 622.518C396.305 621.922 396.08 621.576 395.581 621.201L395.073 620.79C397.9 618.987 405.437 613.974 407.076 611.2L407.724 610.859C406.783 609.232 404.384 605.543 404.981 603.756Z"/><path fill="#E6E6E6" d="M407.076 611.2L407.724 610.859C407.857 611.06 408.448 611.798 408.225 612.088C405.868 615.158 399.27 620.24 396.489 622.518C396.305 621.922 396.08 621.576 395.581 621.201L395.073 620.79C397.9 618.987 405.437 613.974 407.076 611.2Z"/><path fill="#1C1A1B" d="M619.919 603.313C620.308 603.286 620.697 603.259 621.086 603.232C620.506 605.878 619.811 609.161 618.021 611.261C616.944 612.523 618.846 613.084 619.704 614.223C619.76 615.568 620.074 615.673 620.907 616.772C622.727 618.522 624.584 620.231 626.478 621.9C618.979 622.052 597.095 622.855 591.721 618.782C588.588 616.386 583.275 613.652 585.789 609.162C588.097 608.476 590.802 608.35 593.252 608.075C600.288 607.286 607.07 606.006 614.006 604.62C615.989 604.243 617.961 603.807 619.919 603.313Z"/><path fill="#CBCBCC" d="M619.919 603.313C620.308 603.286 620.697 603.259 621.086 603.232C620.506 605.878 619.811 609.161 618.021 611.261C616.944 612.523 618.846 613.084 619.704 614.223C619.76 615.568 620.074 615.673 620.907 616.772C619.197 615.267 617.576 613.8 615.839 612.301C618.323 608.894 619.116 607.529 619.919 603.313Z"/><path fill="#1C1A1B" d="M369.563 405.209C373.001 398.695 374.224 395.366 379.076 389.268L380.416 389.581L380.402 390.482C380.313 394.071 378.77 399.717 378.581 403.589C377.904 417.481 378.473 430.403 381.597 444C382.136 447.048 384.77 456.667 384.31 458.602C376.106 443.52 368.152 418.779 365.423 401.837C365.294 401.331 365.216 401.511 365.464 401.261C365.983 401.285 366.09 401.421 366.702 401.687C367.53 402.542 368.751 404.198 369.563 405.209Z"/><path fill="#CBCBCC" d="M369.563 405.209C373.001 398.695 374.224 395.366 379.076 389.268L380.416 389.581C375.131 396.145 373.444 399.256 370.12 406.849C367.93 404.736 367.395 404.134 365.423 401.837C365.294 401.331 365.216 401.511 365.464 401.261C365.983 401.285 366.09 401.421 366.702 401.687C367.53 402.542 368.751 404.198 369.563 405.209Z"/><path fill="#1C1A1B" d="M414.129 557.204C418.24 559.76 435.263 570.477 437.921 573.181C439.02 573.677 439.571 573.867 440.526 574.606C440.525 575.234 440.518 575.862 440.506 576.489C440.148 576.284 439.787 576.086 439.423 575.893C440.083 577.583 440.63 578.959 441.211 580.695C439.414 581.355 433.913 582.901 433.072 583.599C429.528 583.535 407.815 575.496 408.408 573.218L408.156 572.455C408.946 571.361 413.212 569.699 414.946 568.74C415.458 568.775 415.813 568.918 416.322 569.066C414.286 565.382 413.921 561.289 414.129 557.204Z"/><path fill="#E6E6E6" d="M414.946 568.74C415.458 568.775 415.813 568.918 416.322 569.066C416.335 569.357 416.437 570.041 416.243 570.333C414.241 571.371 411.777 571.375 408.789 573.013L408.408 573.218L408.156 572.455C408.946 571.361 413.212 569.699 414.946 568.74Z"/><path fill="#3A3534" d="M437.921 573.181C439.02 573.677 439.571 573.867 440.526 574.606C440.525 575.234 440.518 575.862 440.506 576.489C440.148 576.284 439.787 576.086 439.423 575.893C438.044 575.049 438.263 574.824 437.921 573.181Z"/><path fill="#1C1A1B" d="M643.899 387.899C647.657 392.162 651.36 398.809 654.094 403.832C655.303 402.31 655.905 401.39 657.296 399.974L657.892 400.815C657.74 402.564 657.505 404.305 657.186 406.031C654.023 419.441 647.541 444.133 640.814 455.692L640.394 452.287C640.501 451.308 640.59 450.327 640.66 449.344C641.553 447.764 642.838 441.745 643.237 439.768C646.936 421.435 646.666 407.893 642.847 389.719C642.731 388.527 642.914 388.677 643.899 387.899Z"/><path fill="#E6E6E6" d="M643.899 387.899C647.657 392.162 651.36 398.809 654.094 403.832C655.303 402.31 655.905 401.39 657.296 399.974L657.892 400.815C657.145 401.595 656.898 401.684 656.5 402.622C656.181 403.008 654.555 405.516 654.017 405.047C650.662 402.124 647.263 391.014 642.847 389.719C642.731 388.527 642.914 388.677 643.899 387.899Z"/><path fill="#3A3534" d="M656.5 402.622C656.898 401.684 657.145 401.595 657.892 400.815C657.74 402.564 657.505 404.305 657.186 406.031L657.159 405.377C657.114 403.893 657.169 403.88 656.5 402.622Z"/><path fill="#1C1A1B" d="M417.542 418.91C417.299 420.031 416.964 421.128 416.683 422.241C414.94 432.686 413.742 441.471 415.53 451.998C416.094 455.319 417.34 458.658 415.757 461.673C412.664 464.634 415.493 467.498 410.815 468.095C410.33 465.514 409.23 462.653 408.597 459.994L407.856 456.762C405.193 444.905 405.245 433.828 406.412 421.839C406.587 421.273 406.699 420.942 406.916 420.392C408.008 421.759 409.178 423.464 410.181 424.914C412.411 423.001 414.576 421.42 416.82 419.512L417.542 418.91Z"/><path fill="#E6E6E6" d="M417.542 418.91C417.299 420.031 416.964 421.128 416.683 422.241C413.862 423.434 412.27 426.607 410.703 429.073C409.24 425.907 408.563 424.561 406.412 421.839C406.587 421.273 406.699 420.942 406.916 420.392C408.008 421.759 409.178 423.464 410.181 424.914C412.411 423.001 414.576 421.42 416.82 419.512L417.542 418.91Z"/><path fill="#1C1A1B" d="M617.134 417.566L617.364 418.29C617.6 418.99 617.634 419.597 617.566 420.327C617.428 424.854 618.203 428.943 618.174 433.5C618.116 442.376 617.227 451.538 615.441 460.245C614.94 462.692 614.387 464.049 614.174 466.563C608.189 466.234 611.476 464.373 607.956 460.498C606.942 458.417 608.176 454.408 608.652 451.501C609.601 445.463 609.74 439.324 609.064 433.249C608.63 429.532 608.029 425.611 607.318 421.941C606.91 420.677 606.976 420.223 606.386 418.97C608.879 420.044 611.185 423.438 612.832 425.606C614.072 423.116 615.517 419.641 617.134 417.566Z"/><path fill="#E6E6E6" d="M617.134 417.566L617.364 418.29C617.6 418.99 617.634 419.597 617.566 420.327C617.304 420.012 617.161 419.726 616.782 419.653C615.344 422.425 614.085 425.662 612.769 428.572C610.668 425.153 610.438 424.201 607.318 421.941C606.91 420.677 606.976 420.223 606.386 418.97C608.879 420.044 611.185 423.438 612.832 425.606C614.072 423.116 615.517 419.641 617.134 417.566Z"/><path fill="#1C1A1B" d="M406.916 420.392C405.448 415.725 411.724 390.568 416.507 389.835C416.491 402.523 418.781 394.163 427.493 392.269C426.899 393.996 424.839 397.958 423.774 399.5C420.021 404.937 420.091 413.833 417.542 418.91L416.82 419.512C414.576 421.42 412.411 423.001 410.181 424.914C409.178 423.464 408.008 421.759 406.916 420.392Z"/><path fill="#1C1A1B" d="M605.254 395.216C605.443 393.789 605.849 389.644 606.436 388.545C606.578 389.088 606.694 389.107 607.229 389.301C612.344 394.303 616.414 410.214 617.134 417.566C615.517 419.641 614.072 423.116 612.832 425.606C611.185 423.438 608.879 420.044 606.386 418.97C606.079 417.556 605.839 415.943 605.588 414.494C604.503 407.909 602.296 401.559 599.062 395.72C598.163 394.108 597.801 393.305 597.063 391.626C597.636 391.416 598.212 391.214 598.79 391.02C599.888 391.414 604.191 394.45 605.254 395.216Z"/><path fill="#CBCBCC" d="M605.254 395.216C605.443 393.789 605.849 389.644 606.436 388.545C606.578 389.088 606.694 389.107 607.229 389.301C607.057 391.732 606.541 394.677 606.165 397.133C602.375 394.343 601.273 393.547 597.063 391.626C597.636 391.416 598.212 391.214 598.79 391.02C599.888 391.414 604.191 394.45 605.254 395.216Z"/><path fill="#1C1A1B" d="M583.974 574.324C583.699 575.973 581.775 580.042 582.277 580.627C584.488 583.205 589.984 583.363 592.86 584.651C585.463 587.849 577.662 590.533 569.756 592.1L567.256 592.586L564.756 593.076C559.078 594.144 553.432 595.532 547.667 596.101C546.755 595.929 545.842 595.764 544.927 595.604C557.109 589.982 573.493 578.625 583.974 574.324Z"/><path fill="#1C1A1B" d="M440.526 574.606L442.255 575.426C448.549 578.445 456.795 584.069 463.203 587.596C467.02 589.696 473.277 592.869 476.645 595.054L475.373 596.522C473.738 596.176 472.135 595.895 470.498 595.586C457.84 593.198 444.824 590.368 432.987 585.222C432.892 585.181 432.963 584.881 432.964 584.872L433.072 583.599C433.913 582.901 439.414 581.355 441.211 580.695C440.63 578.959 440.083 577.583 439.423 575.893C439.787 576.086 440.148 576.284 440.506 576.489C440.518 575.862 440.525 575.234 440.526 574.606Z"/><path fill="#E6E6E6" d="M439.423 575.893C439.787 576.086 440.148 576.284 440.506 576.489C441.234 578.149 442.104 579.933 442.871 581.624C440.209 582.375 435.471 583.814 432.964 584.872L433.072 583.599C433.913 582.901 439.414 581.355 441.211 580.695C440.63 578.959 440.083 577.583 439.423 575.893Z"/><path fill="#1C1A1B" d="M557.249 630.462C567.37 640.884 580.472 649.372 590.508 659.516L590.853 659.861C590.818 660.394 590.883 660.475 591.014 661.016C589.978 661.692 589.709 661.609 588.38 661.801C586.948 661.067 585.776 661.08 584.187 660.608C578.84 660.045 574.651 659.764 569.276 658.687C564.184 647.75 563.77 641.973 557.249 630.462Z"/><path fill="#E6E6E6" d="M590.853 659.861C590.818 660.394 590.883 660.475 591.014 661.016C589.978 661.692 589.709 661.609 588.38 661.801C586.948 661.067 585.776 661.08 584.187 660.608C586.572 660.545 588.968 660.917 590.853 659.861Z"/><path fill="#1C1A1B" d="M465.792 632.04C465.866 633.302 463.623 636.23 462.877 637.711C459.981 643.462 458.55 650.026 455.923 655.792L455.561 656.619L455.258 656.714C447.43 659.101 441.375 661.401 433.121 659.992C432.041 659.007 433.545 658.133 434.462 657.424C445.101 649.199 455.336 640.49 465.792 632.04Z"/><path fill="#1C1A1B" d="M451.358 356.257L450.883 357.679C440.303 361.878 430.206 377.442 426.313 387.811C426.621 389.852 426.766 390.293 427.493 392.269C418.781 394.163 416.491 402.523 416.507 389.835C416.942 389.003 416.858 387.873 417.047 386.859C427.945 370.985 433.294 364.231 451.358 356.257Z"/><path fill="#E6E6E6" d="M416.507 389.835C416.942 389.003 416.858 387.873 417.047 386.859C417.644 389.94 417.47 391.991 417.593 395.102C422.339 392.726 425.176 392.923 426.313 387.811C426.621 389.852 426.766 390.293 427.493 392.269C418.781 394.163 416.491 402.523 416.507 389.835Z"/><path fill="#1C1A1B" d="M780.847 598.416C780.983 602.471 776.276 611.686 774.084 615.303C768.094 625.186 760.655 625.632 749.589 623.413C744.651 620.29 756.718 616.954 759.135 615.878C769.103 611.44 773.94 606.564 780.847 598.416Z"/><path fill="#1C1A1B" d="M242.516 597.863C246.469 600.645 249.332 607.205 255.451 610.612C262.175 614.354 269.411 617.821 275.659 622.13C275.992 622.359 275.85 623.138 275.817 623.432C254.426 628.764 248.154 615.301 242.516 597.863Z"/><path fill="#1C1A1B" d="M550.715 612.891C559.24 610.751 574.911 609.186 583.747 609.057C584.427 609.101 585.108 609.136 585.789 609.162C583.275 613.652 588.588 616.386 591.721 618.782L591.036 619.42C591.219 619.694 591.401 619.969 591.583 620.243C580.861 619.74 560.259 615.844 550.715 612.891Z"/><path fill="#676364" d="M583.747 609.057C584.427 609.101 585.108 609.136 585.789 609.162C583.275 613.652 588.588 616.386 591.721 618.782L591.036 619.42C586.315 616.742 583.838 614.446 583.747 609.057Z"/><path fill="#1C1A1B" d="M574.202 356.572C585.7 361.771 595.406 370.016 602.404 380.51C604.444 383.57 605.785 384.966 606.436 388.545C605.849 389.644 605.443 393.789 605.254 395.216C604.191 394.45 599.888 391.414 598.79 391.02L598.412 390.262C596.954 387.398 596.215 384.084 594.647 380.884C590.04 371.479 582.484 363.346 573.837 357.571L574.202 356.572Z"/><path fill="#1C1A1B" d="M572.837 562.647C572.731 564.132 571.413 567.637 572.474 568.312C573.294 568.833 578.221 569.459 579.985 570.257C570.677 576.3 548.949 586.197 538.743 590.475C549.416 582.253 562.749 571.596 572.837 562.647Z"/><path fill="#1C1A1B" d="M556.45 623.393C555.95 623.092 555.747 623.045 555.369 622.684L555.554 622.517C556.628 622.358 557.756 622.54 558.813 622.72C566.68 623.957 578.698 624.614 586.978 625.068C586.893 631.607 589.411 631.38 593.225 636.933C593.72 637.653 593.769 637.72 593.356 638.241C580.852 635.322 568.807 627.739 556.45 623.393Z"/><path fill="#3A3534" d="M556.45 623.393C555.95 623.092 555.747 623.045 555.369 622.684L555.554 622.517C556.628 622.358 557.756 622.54 558.813 622.72C558.022 622.934 557.235 623.159 556.45 623.393Z"/><path fill="#1C1A1B" d="M441.086 609.045C451.947 610.704 463.224 611.481 474.061 613.13C472.663 613.538 471.671 613.809 470.256 614.07L467.507 614.592C463.897 615.249 436.512 620.605 435.186 620.292C434.625 619.695 436.99 617.844 437.274 617.583L436.466 617.037C438.754 614.22 439.106 614.075 440.112 610.486C440.358 609.948 440.727 609.528 441.086 609.045Z"/><path fill="#CBCBCC" d="M440.112 610.486C440.358 609.948 440.727 609.528 441.086 609.045C440.762 612.776 439.971 614.849 437.274 617.583L436.466 617.037C438.754 614.22 439.106 614.075 440.112 610.486Z"/><path fill="#1C1A1B" d="M455.082 566.449C464.51 574.335 474.546 581.579 484.106 589.307C475.404 585.964 466.858 582.231 458.492 578.118C454.267 576.078 447.534 572.424 443.439 570.733C446.618 570.11 452.098 569.105 454.459 566.839L455.082 566.449Z"/><path fill="#1C1A1B" d="M437.263 625.215C438.288 625.061 439.225 624.955 440.265 624.926C449.966 624.659 459.062 623.598 468.649 622.121C459.358 627.406 442.734 633.418 432.49 637.248C433.511 632.155 437.225 633.292 437.263 625.215Z"/><path fill="#1C1A1B" d="M558.278 627.576C565.188 631.441 572.304 634.923 579.596 638.007C583.477 639.628 588.315 641.116 591.859 642.773C589.015 646.113 586.921 646.452 584.543 648.791C581.045 647.559 561.986 631.111 558.278 627.576Z"/><path fill="#1C1A1B" d="M558.755 558.589C559.125 558.178 559.5 557.772 559.879 557.371C561.438 562.015 560.26 561.013 566.258 561.016C566.017 561.409 565.775 561.803 565.534 562.197C557.44 569.71 544.565 577.01 534.69 582.09C543.587 573.494 550.026 567.873 558.755 558.589Z"/><path fill="#98999A" d="M558.755 558.589C559.125 558.178 559.5 557.772 559.879 557.371C561.438 562.015 560.26 561.013 566.258 561.016C566.017 561.409 565.775 561.803 565.534 562.197C564.691 562.159 558.728 562.162 558.514 561.663C558.817 561.044 559.676 560.95 559.921 560.3C559.537 559.72 559.121 559.182 558.755 558.589Z"/><path fill="#1C1A1B" d="M465.795 559.422C474.87 568.961 479.426 573.426 489.065 582.314C479.034 577.207 467.13 569.669 458.474 562.363C460.031 562.208 461.567 562.089 463.127 561.921C464.296 561.987 464.191 562.031 465.113 561.338C465.337 560.686 465.543 560.066 465.795 559.422Z"/><path fill="#79787A" d="M511.023 844.68C511.267 845.144 511.229 845.174 511.578 845.478C512.072 845.561 512.238 844.984 512.425 844.627C512.782 847.905 512.186 851.139 511.716 854.34C511.527 851.91 510.872 846.831 511.023 844.68Z"/><path fill="#676364" d="M538.792 177.739L538.743 177.766C539.836 177.653 547.09 178.603 547.897 178.871L548.437 180.491C547.759 180.289 547.179 180.154 546.512 179.965L544.512 179.385C542.514 178.795 540.824 178.254 538.792 177.739Z"/><path fill="#676364" d="M462.383 243.69C464.546 243.092 467.766 242.597 470.03 242.236C467.548 243.129 465.544 244.067 462.864 244.851L462.51 244.958L462.383 243.69Z"/><path fill="#676364" d="M810.281 491.074C810.582 488.748 810.88 487.128 811.422 484.83C811.496 487.793 811.673 490.79 811.26 493.733C810.97 492.317 811.017 492.352 810.281 491.074Z"/><path fill="#3A3534" d="M805.28 448.851C805.436 448.198 805.96 445.981 806.658 445.725C807.318 446.157 806.91 450.131 806.743 450.956C806.228 449.68 806.288 449.775 805.28 448.851Z"/><path fill="#3A3534" d="M313.535 249.964C311.744 252.268 309.561 254.864 307.675 257.183L306.809 256.313C309.022 254.166 311.264 252.049 313.535 249.964Z"/><path fill="#CBCBCC" d="M464.934 628.16C465.439 626.549 466.795 626.215 468.322 625.791L468.951 625.61C467.772 627.04 466.841 628.278 464.934 628.16Z"/><path fill="#3A3534" d="M579.298 683.505C579.099 682.966 577.467 679.477 578.222 679.272C578.802 679.413 579.931 681.149 580.353 681.677L579.298 683.505Z"/><path fill="#292524" d="M640.308 303.216C640.208 302.794 639.147 299.477 639.805 299.389C640.393 299.641 641.391 301.17 641.805 301.716C641.303 302.213 640.804 302.713 640.308 303.216Z"/><path fill="#292524" d="M230.768 371.145C230.975 370.612 231.52 368.906 232.188 368.899C232.492 369.402 231.901 372.682 231.765 373.409L230.768 371.145Z"/><path fill="#3A3534" d="M709.244 565.537L711.26 565.142C711.748 565.05 712.751 564.735 713.171 565.175C713.209 565.831 711.199 566.689 710.701 566.93L709.244 565.537Z"/><path fill="#98999A" d="M476.237 178.823C478.503 178.271 480.363 178.253 482.648 178.231C480.59 178.814 478.541 179.399 476.467 179.902L476.237 178.823Z"/><path fill="#79787A" d="M551.725 298.824L555.546 299.801C556.966 300.15 557.311 300.241 558.701 300.74L558.336 301.636C555.847 300.741 554.089 299.947 551.725 298.824Z"/><path fill="#676364" d="M555.877 242.61L556.679 242.872C557.807 243.264 558.822 243.349 559.919 243.731L559.276 244.728C557.61 244.078 556.389 243.703 554.65 243.239L555.877 242.61Z"/><path fill="#292524" d="M476.645 595.054C477.264 595.42 478.799 596.115 479.11 596.758C479.065 597.435 475.754 596.585 475.373 596.522L476.645 595.054Z"/><path fill="#3A3534" d="M461.071 629.88C462.715 629.082 463.198 628.768 464.934 628.16C463.855 629.343 463.193 629.968 461.999 631.034L461.071 629.88Z"/><path fill="#292524" d="M400.232 347.037C400.586 346.512 401.116 345.519 401.697 345.297C402.279 345.406 401.783 347.855 401.753 348.101L400.232 347.037Z"/><path fill="#292524" d="M218.406 449.975C218.378 449.574 217.958 446.502 218.396 446.334C219.015 446.665 219.494 448.516 219.73 449.162L218.406 449.975Z"/><path fill="#292524" d="M279.226 599.143C276.253 597.622 274.703 596.52 279.316 597.4L279.226 599.143Z"/><path fill="#98999A" d="M451.358 356.257C454.506 354.447 453.856 356.14 450.883 357.679L451.358 356.257Z"/><path fill="#3A3534" d="M571.563 355.218C572.425 355.711 573.334 356.091 574.202 356.572L573.837 357.571C572.703 356.982 572.127 356.573 570.917 356.049L571.563 355.218Z"/><path fill="#676364" d="M547.667 596.101C546.992 596.238 543.384 596.95 542.936 596.695L542.955 596.599C543.394 596.136 544.286 595.922 544.927 595.604C545.842 595.764 546.755 595.929 547.667 596.101Z"/><path fill="#3A3534" d="M367.211 712.164C364.955 710.586 363.169 709.562 367.349 710.354L367.211 712.164Z"/><path fill="#676364" d="M793.279 373.278C793.196 372.811 792.562 370.209 792.844 369.855L792.956 369.857C793.39 370.124 793.95 371.438 794.146 371.833L793.279 373.278Z"/><path fill="#676364" d="M713.849 253.659C712.056 251.554 711.963 249.967 714.436 252.786L713.849 253.659Z"/><path fill="#676364" d="M468.453 299.286L469.078 299.999C467.998 300.376 467.064 300.621 465.988 301.036L466.061 300.048C466.867 299.783 467.639 299.529 468.453 299.286Z"/><path fill="#79787A" d="M570.917 356.049C569.237 355.04 568.111 353.735 570.896 354.945L571.563 355.218L570.917 356.049Z"/><path fill="#CBCBCC" d="M212.452 488.143C211.75 485.849 212.852 485.249 212.914 488.082L212.452 488.143Z"/><path fill="#CBCBCC" d="M468.453 299.286C469.221 299.089 469.835 298.86 470.611 299.089L470.681 299.184C470.557 299.555 469.351 299.889 469.078 299.999L468.453 299.286Z"/><path fill="#CBCBCC" d="M554.65 243.239C554.37 243.148 553.88 243.083 553.7 242.788C553.957 242.219 555.42 242.529 555.877 242.61L554.65 243.239Z"/></svg>